<?xml version="1.0"?>
<svg xmlns="http://www.w3.org/2000/svg" id="Filled" viewBox="0 0 512 512" width="512" height="512"><path d="M359.911,56H240V360H439.911a16,16,0,0,0,16-16V194.6a56,56,0,0,0,32-50.6S495.911,56,359.911,56Z" style="fill:#ea8333"/><path d="M368.089,144a56,56,0,0,1-32,50.6V344a16,16,0,0,1-16,16h-160a16,16,0,0,1-16-16V194.6a56,56,0,0,1-32-50.6s-8-88,128-88S368.089,144,368.089,144Z" style="fill:#fae8d8"/><path d="M385.97,324.977C345.19,256.757,280,264,280,264V249.552a15.932,15.932,0,0,0-9.561-14.652C245.163,224,208,224,208,224s-37.163,0-62.439,10.9A15.932,15.932,0,0,0,136,249.552V264s-65.19-7.243-105.97,60.977a15.988,15.988,0,0,0,2.442,19.5L40,352s-29.729,52.635,3.628,98.239a16.016,16.016,0,0,0,24.249,1.884L104,416l48-8H264l48,8,36.123,36.123a16.016,16.016,0,0,0,24.249-1.884C405.729,404.635,376,352,376,352l7.528-7.528A15.988,15.988,0,0,0,385.97,324.977Z" style="fill:#fc8d36"/><path d="M474.051,86.059C450.988,60.805,412.586,48,359.82,48H240c-52.629.014-91,12.818-114.051,38.058-23.185,25.39-22.125,54.288-21.858,58.249a64.346,64.346,0,0,0,32,55.117v32.141A23.971,23.971,0,0,0,128,249.552v6.26a118.583,118.583,0,0,0-32.089,5.461c-20.847,6.545-50.39,22.2-72.749,59.6a23.952,23.952,0,0,0,3.653,29.256l3.484,3.483a123.152,123.152,0,0,0-8.877,29.042c-4.647,26.865.8,51.868,15.749,72.308a24.015,24.015,0,0,0,36.363,2.817l34.31-34.309L152.662,416H263.338l44.818,7.47,34.31,34.309a23.965,23.965,0,0,0,16.96,7.028q.923,0,1.852-.071a24.008,24.008,0,0,0,17.551-9.774c14.95-20.44,20.4-45.443,15.749-72.308a121.378,121.378,0,0,0-3.5-14.654H439.91a24.027,24.027,0,0,0,24-24V199.425a64.351,64.351,0,0,0,32-55.117C496.176,140.347,497.236,111.449,474.051,86.059ZM120.09,144q0-.363-.033-.724c-.023-.246-2.007-24.839,17.708-46.428C157.669,75.052,192.1,64,240.09,64c47.806,0,82.158,10.97,102.1,32.6,19.743,21.417,18.012,45.686,17.932,46.672q-.033.361-.033.724a48.232,48.232,0,0,1-27.431,43.373,8,8,0,0,0-4.569,7.227v69.505c-2.777-1.094-5.455-2.032-8-2.832A118.55,118.55,0,0,0,288,255.812v-6.26a23.9,23.9,0,0,0-14.393-22C247.119,216.131,209.585,216,208,216c-1.4,0-30.811.108-55.91,7.99V194.6a8,8,0,0,0-4.569-7.227A48.23,48.23,0,0,1,120.09,144ZM377.872,338.815l-7.528,7.528h0l-61.089,61.089-36.466-6.078L287.183,271.8c16.431.362,61.435,6.282,91.921,57.282A7.97,7.97,0,0,1,377.872,338.815ZM144,263.556v-14a7.912,7.912,0,0,1,4.729-7.306C172.152,232.145,207.647,232,208,232s35.783.117,59.271,10.246A7.912,7.912,0,0,1,272,249.552v14L256.84,400H159.16ZM36.9,329.082c15.73-26.313,36.966-43.918,63.12-52.325a102.768,102.768,0,0,1,28.8-4.951l14.394,129.548-36.466,6.078L45.657,346.343h0l-7.527-7.528A7.968,7.968,0,0,1,36.9,329.082ZM62.22,446.466a8.016,8.016,0,0,1-12.135-.95C37.679,428.555,33.311,408.493,37.1,385.887a107.125,107.125,0,0,1,5.448-20.022L92.686,416Zm303.7-.95a8.016,8.016,0,0,1-12.135.95L323.314,416l50.135-50.135a107.191,107.191,0,0,1,5.448,20.022C382.689,408.493,378.321,428.555,365.915,445.516Zm114.028-302.24q-.033.361-.033.724a48.23,48.23,0,0,1-27.431,43.373,8,8,0,0,0-4.569,7.227V344a8.009,8.009,0,0,1-8,8h-52.6l1.872-1.871a23.953,23.953,0,0,0,3.652-29.256c-14.653-24.513-32.393-39.683-48.748-49.07V199.425a64.346,64.346,0,0,0,32-55.117c.266-3.961,1.327-32.859-21.859-58.249A98.714,98.714,0,0,0,324.128,64H359.91c47.807,0,82.158,10.97,102.1,32.6C481.754,118.021,480.023,142.29,479.943,143.276Z"/></svg>
