<svg id="Filled" height="512" viewBox="0 0 512 512" width="512" xmlns="http://www.w3.org/2000/svg"><path d="m88 24h336v464h-336z" fill="#6a7073"/><path d="m376 56v384l-24-16-24 16-24-16-24 16-24-16-24 16-24-16-24 16-24-16-24 16v-384z" fill="#fae8d8"/><path d="m184 24h144a0 0 0 0 1 0 0v16a32 32 0 0 1 -32 32h-80a32 32 0 0 1 -32-32v-16a0 0 0 0 1 0 0z" fill="#c2c5c6"/><path d="m88 496h336a8 8 0 0 0 8-8v-464a8 8 0 0 0 -8-8h-336a8 8 0 0 0 -8 8v464a8 8 0 0 0 8 8zm128-416h80a39.962 39.962 0 0 0 31.978-16h40.022v361.052l-11.562-7.708a8 8 0 0 0 -8.876 0l-19.562 13.041-19.562-13.041a8 8 0 0 0 -8.876 0l-19.562 13.041-19.562-13.041a8 8 0 0 0 -8.876 0l-19.562 13.041-19.562-13.041a8 8 0 0 0 -8.876 0l-19.562 13.041-19.562-13.041a8 8 0 0 0 -8.876 0l-11.562 7.708v-361.052h40.022a39.962 39.962 0 0 0 31.978 16zm80-16h-80a24.027 24.027 0 0 1 -24-24v-8h128v8a24.027 24.027 0 0 1 -24 24zm-200-32h80v8a40.028 40.028 0 0 0 .805 8h-40.805a8 8 0 0 0 -8 8v384a8 8 0 0 0 12.438 6.656l19.562-13.041 19.562 13.041a8 8 0 0 0 8.876 0l19.562-13.041 19.562 13.041a8 8 0 0 0 8.876 0l19.562-13.041 19.562 13.041a8 8 0 0 0 8.876 0l19.562-13.041 19.562 13.041a8 8 0 0 0 8.876 0l19.562-13.041 19.562 13.041a8 8 0 0 0 12.438-6.656v-384a8 8 0 0 0 -8-8h-40.8a40.028 40.028 0 0 0 .8-8v-8h80v448h-320z"/><path d="m184 160h16a8 8 0 0 1 0 16h-24a8 8 0 0 0 0 16h8v8a8 8 0 0 0 16 0v-8a24 24 0 0 0 0-48h-16a8 8 0 0 1 0-16h24a8 8 0 0 0 0-16h-8v-8a8 8 0 0 0 -16 0v8a24 24 0 0 0 0 48z"/><path d="m288 128h56a8 8 0 0 0 0-16h-56a8 8 0 0 0 0 16z"/><path d="m248 192h56a8 8 0 0 0 0-16h-56a8 8 0 0 0 0 16z"/><path d="m248 160h96a8 8 0 0 0 0-16h-96a8 8 0 0 0 0 16z"/><path d="m168 240h176a8 8 0 0 0 0-16h-176a8 8 0 0 0 0 16z"/><path d="m168 272h176a8 8 0 0 0 0-16h-176a8 8 0 0 0 0 16z"/><path d="m200 304h40a8 8 0 0 0 0-16h-40a8 8 0 0 0 0 16z"/><path d="m200 336h40a8 8 0 0 0 0-16h-40a8 8 0 0 0 0 16z"/><path d="m200 368h40a8 8 0 0 0 0-16h-40a8 8 0 0 0 0 16z"/><path d="m344 288h-24a8 8 0 0 0 0 16h24a8 8 0 0 0 0-16z"/><path d="m344 320h-24a8 8 0 0 0 0 16h24a8 8 0 0 0 0-16z"/><path d="m344 352h-24a8 8 0 0 0 0 16h24a8 8 0 0 0 0-16z"/><path d="m312 384h-112a8 8 0 0 0 0 16h112a8 8 0 0 0 0-16z"/><circle cx="256" cy="120" r="8"/><circle cx="168" cy="296" r="8"/><circle cx="168" cy="328" r="8"/><circle cx="168" cy="360" r="8"/></svg>