<svg id="Filled" height="512" viewBox="0 0 512 512" width="512" xmlns="http://www.w3.org/2000/svg"><path d="m104 32-80 184h160z" fill="#e4bc43"/><path d="m104 32v96h304v-96zm232 48a16 16 0 0 1 -16 16h-128a16 16 0 0 1 -16-16 16 16 0 0 1 16-16h128a16 16 0 0 1 16 16z" fill="#fdd14b"/><path d="m24 216h320v240h-320z" fill="#fdd14b"/><path d="m328 216h160v240h-160z" fill="#f0c647"/><path d="m64 328h224v64h-224z" fill="#fc8d36"/><path d="m64 392h224v32h-224z" fill="#794832"/><path d="m328 216h-304l80-88h296z" fill="#f0c647"/><path d="m408 32-80 184h160z" fill="#e4bc43"/><path d="m408 32h16a32 32 0 0 1 32 32v64a0 0 0 0 1 0 0h-48a0 0 0 0 1 0 0v-96a0 0 0 0 1 0 0z" fill="#fdd14b"/><path d="m288 343.548c0 8.615-6.621 16.029-15.227 16.434a16 16 0 0 1 -16.773-15.982 16 16 0 0 0 -32-.2 16.149 16.149 0 0 1 -16 16.2 16 16 0 0 1 -16-16 16 16 0 0 0 -16-16 16 16 0 0 0 -16 16 16 16 0 0 1 -16 16 16 16 0 0 1 -16-16 16 16 0 0 0 -16-16 16 16 0 0 0 -16 16 16 16 0 0 1 -16 16 16 16 0 0 1 -16-16v-24a16 16 0 0 1 16-16h192a16 16 0 0 1 16 16z" fill="#fae8d8"/><path d="m64 384h224v16h-224z" fill="#fae8d8"/><circle cx="176" cy="288" fill="#e74444" r="16"/><path d="m192 104h128a24 24 0 0 0 0-48h-128a24 24 0 0 0 0 48zm0-32h128a8 8 0 0 1 0 16h-128a8 8 0 0 1 0-16z"/><path d="m495.337 212.811-34.207-78.676a7.98 7.98 0 0 0 2.87-6.135v-64a40.045 40.045 0 0 0 -40-40h-320a8 8 0 0 0 -7.335 4.811l-.019.044-.023.053-79.958 183.9a8 8 0 0 0 -.665 3.192v240a8 8 0 0 0 8 8h464a8 8 0 0 0 8-8v-240a8 8 0 0 0 -.663-3.189zm-399.337-87.905-45.368 49.906 45.368-104.348zm11.539 11.094h246.52l-31.3 72h-280.674zm292.461-65.536v57.536a8 8 0 0 0 8 8h36.494l31.3 72h-135.594zm16-30.464h8a24.028 24.028 0 0 1 24 24v56h-32zm-20.2 0-34.782 80h-249.018v-80zm-363.8 184h288v224h-288zm304 224v-224h144v224z"/><path d="m296 320a24.028 24.028 0 0 0 -24-24h-73.376a23.981 23.981 0 0 0 -13.674-30.262 12.638 12.638 0 0 1 6.292-7.363 21.734 21.734 0 0 1 8.758-2.375 8 8 0 0 0 0-16 37.369 37.369 0 0 0 -15.619 3.909 28.986 28.986 0 0 0 -15.73 21.246 23.987 23.987 0 0 0 -15.275 30.845h-73.376a24.028 24.028 0 0 0 -24 24v104a8 8 0 0 0 8 8h224a8 8 0 0 0 8-8zm-128-32a8.012 8.012 0 0 1 6.342-7.825 7.942 7.942 0 0 0 3.316 0 8 8 0 1 1 -9.658 7.825zm-96 32a8.009 8.009 0 0 1 8-8h192a8.009 8.009 0 0 1 8 8v23.548a8.327 8.327 0 0 1 -7.6 8.442 8 8 0 0 1 -8.4-7.99 24 24 0 0 0 -48-.3 8.141 8.141 0 0 1 -8 8.3 8.009 8.009 0 0 1 -8-8 24 24 0 0 0 -48 0 8 8 0 0 1 -16 0 24 24 0 0 0 -48 0 8 8 0 0 1 -16 0zm208 64h-208v-17.376a23.992 23.992 0 0 0 32-22.624 8 8 0 0 1 16 0 24 24 0 0 0 48 0 8 8 0 0 1 16 0 24 24 0 1 0 48-.1 8 8 0 0 1 16 .1 24.11 24.11 0 0 0 7.435 17.366 23.779 23.779 0 0 0 16.544 6.634c.389 0 .78-.009 1.17-.027a23.635 23.635 0 0 0 6.851-1.351zm0 32h-208v-16h208z"/></svg>