<svg id="Filled" height="512" viewBox="0 0 512 512" width="512" xmlns="http://www.w3.org/2000/svg"><rect fill="#2b70a8" height="464" rx="32" width="256" x="120" y="24"/><path d="m376 56v32h-256v-32a32 32 0 0 1 32-32h192a32 32 0 0 1 32 32z" fill="#c2c5c6"/><path d="m376 408v48a32 32 0 0 1 -32 32h-192a32 32 0 0 1 -32-32v-48z" fill="#c2c5c6"/><path d="m176 264v-16a16 16 0 0 0 -16-16h-120a16 16 0 0 0 -16 16v96a16 16 0 0 0 16 16h120a16 16 0 0 0 16-16v-32l32-24z" fill="#a4d4f4"/><path d="m256 136v16l-32 24 32 24v128a16 16 0 0 0 16 16h208a16 16 0 0 0 16-16v-192a16 16 0 0 0 -16-16h-208a16 16 0 0 0 -16 16z" fill="#a4d4f4"/><path d="m352 160h48a48 48 0 0 1 48 48 0 0 0 0 1 0 0h-144a0 0 0 0 1 0 0 48 48 0 0 1 48-48z" fill="#ea8333"/><path d="m304 272h144a0 0 0 0 1 0 0v16a16 16 0 0 1 -16 16h-112a16 16 0 0 1 -16-16v-16a0 0 0 0 1 0 0z" fill="#ea8333"/><path d="m441.455 240c8.033 0 14.545 7.163 14.545 16 0 8.837-6.512 16-14.545 16h-130.91c-8.033 0-14.545-7.163-14.545-16 0-8.837 6.512-16 14.545-16z" fill="#794832"/><path d="m312 208h128v32h-128z" fill="#fdd14b"/><path d="m464 216c0 13.255-11.257 24-25.143 24a25.445 25.445 0 0 1 -20.952-10.735 25.815 25.815 0 0 1 -41.9 0 25.815 25.815 0 0 1 -41.9 0 25.445 25.445 0 0 1 -20.962 10.735c-13.886 0-25.143-10.745-25.143-24a8 8 0 0 1 8-8h160a8 8 0 0 1 8 8z" fill="#3ba673"/><circle cx="200" cy="56" r="8"/><path d="m296 48h-56a8 8 0 0 0 0 16h56a8 8 0 0 0 0-16z"/><path d="m248 472a24 24 0 1 0 -24-24 24.027 24.027 0 0 0 24 24zm0-32a8 8 0 1 1 -8 8 8.009 8.009 0 0 1 8-8z"/><path d="m472 112h-88v-56a40.045 40.045 0 0 0 -40-40h-192a40.045 40.045 0 0 0 -40 40v168h-72a24.028 24.028 0 0 0 -24 24v96a24.028 24.028 0 0 0 24 24h72v88a40.045 40.045 0 0 0 40 40h192a40.045 40.045 0 0 0 40-40v-104h88a24.028 24.028 0 0 0 24-24v-192a24.028 24.028 0 0 0 -24-24zm-344-56a24.028 24.028 0 0 1 24-24h192a24.028 24.028 0 0 1 24 24v24h-240zm-88 296a8.009 8.009 0 0 1 -8-8v-96a8.009 8.009 0 0 1 8-8h120a8.009 8.009 0 0 1 8 8v16a8 8 0 0 0 3.2 6.4l23.467 17.6-23.467 17.6a8 8 0 0 0 -3.2 6.4v32a8.009 8.009 0 0 1 -8 8zm328 104a24.028 24.028 0 0 1 -24 24h-192a24.028 24.028 0 0 1 -24-24v-40h240zm0-56h-240v-32h32a24.028 24.028 0 0 0 24-24v-28l28.8-21.6a8 8 0 0 0 0-12.8l-28.8-21.6v-12a24.028 24.028 0 0 0 -24-24h-32v-128h240v16h-104a24.028 24.028 0 0 0 -24 24v12l-28.8 21.6a8 8 0 0 0 0 12.8l28.8 21.6v124a24.028 24.028 0 0 0 24 24h104zm112-72a8.009 8.009 0 0 1 -8 8h-208a8.009 8.009 0 0 1 -8-8v-128a8 8 0 0 0 -3.2-6.4l-23.467-17.6 23.467-17.6a8 8 0 0 0 3.2-6.4v-16a8.009 8.009 0 0 1 8-8h208a8.009 8.009 0 0 1 8 8z"/><path d="m144 256h-88a8 8 0 0 0 0 16h88a8 8 0 0 0 0-16z"/><path d="m144 288h-88a8 8 0 0 0 0 16h88a8 8 0 0 0 0-16z"/><path d="m120 320h-64a8 8 0 0 0 0 16h64a8 8 0 0 0 0-16z"/><path d="m464 216a16.019 16.019 0 0 0 -16-16h-.581a56.078 56.078 0 0 0 -55.419-48h-48a56.078 56.078 0 0 0 -55.419 48h-.581a16.019 16.019 0 0 0 -16 16 31.581 31.581 0 0 0 12.794 25.231 24.868 24.868 0 0 0 -4.794 14.769 24.6 24.6 0 0 0 8 18.316v13.684a24.028 24.028 0 0 0 24 24h112a24.028 24.028 0 0 0 24-24v-13.684a24.6 24.6 0 0 0 8-18.316 24.868 24.868 0 0 0 -4.794-14.769 31.581 31.581 0 0 0 12.794-25.231zm-120-48h48a40.069 40.069 0 0 1 39.2 32h-126.395a40.069 40.069 0 0 1 39.195-32zm88 120a8.009 8.009 0 0 1 -8 8h-112a8.009 8.009 0 0 1 -8-8v-8h128zm1.454-24h-130.908c-3.609 0-6.546-3.589-6.546-8s10.937-8 14.546-8v-.107c.858.064 1.722.107 2.6.107 7.744 0 7.111-2.6 12.953-7.2 5.841 4.6 21.207 7.2 28.952 7.2s7.111-2.6 12.952-7.2c5.841 4.6 21.208 7.2 28.952 7.2s7.111-2.6 12.952-7.2c5.842 4.6 21.209 7.2 28.953 7.2.875 0 1.739-.043 2.6-.107v.107c3.609 0-1.454 3.589-1.454 8s-2.943 8-6.552 8zm14.546-48c0 8.822-7.69 16-17.143 16a17.442 17.442 0 0 1 -14.387-7.307 8 8 0 0 0 -13.131 0 17.818 17.818 0 0 1 -28.774 0 8 8 0 0 0 -13.13 0 17.818 17.818 0 0 1 -28.774 0 8 8 0 0 0 -13.131 0 17.442 17.442 0 0 1 -14.387 7.307c-9.453 0-17.143-7.178-17.143-16l160-.01z"/></svg>