<?xml version="1.0"?>
<svg xmlns="http://www.w3.org/2000/svg" id="Filled" viewBox="0 0 512 512" width="512" height="512"><path d="M440,352V280a64,64,0,0,0-64-64H360l-88.774-76.092a64,64,0,0,0-53.305-14.338l-94.315,17.466A112,112,0,0,0,32,253.164V272A112,112,0,0,0,144,384H456a16,16,0,0,0,16-16h0a16,16,0,0,0-16-16Z" style="fill:#ea8333"/><path d="M433.706,71.667,331.882,173.49l22.628,22.628L456.333,94.294h0a16,16,0,0,0,22.627,0h0a16,16,0,0,0,0-22.627L467.647,60.353,456.333,49.04a16,16,0,0,0-22.627,0h0a16,16,0,0,0,0,22.627Z" style="fill:#ab6647"/><ellipse cx="331.882" cy="196.118" rx="96" ry="72" transform="translate(-41.47 292.118) rotate(-45)" style="fill:#fc8d36"/><path d="M268.976,343.58l-5.543-20.326A32,32,0,0,0,228.035,300L144,312s48-48,48-88c0,0-48,8-64,48l-16-24s-24,16-24,64v8a64,64,0,0,0,64,64h86.1A32,32,0,0,0,268.976,343.58Z" style="fill:#fc8d36"/><circle cx="112" cy="376" r="40" style="fill:#e74444"/><path d="M352,408a32,32,0,1,0-8.728-62.785,32,32,0,0,0-62.544,0A32,32,0,1,0,272,408Z" style="fill:#3ba673"/><path d="M40,408H472a0,0,0,0,1,0,0v24a32,32,0,0,1-32,32H72a32,32,0,0,1-32-32V408a0,0,0,0,1,0,0Z" style="fill:#794832"/><path d="M24,384H488a0,0,0,0,1,0,0v16a16,16,0,0,1-16,16H40a16,16,0,0,1-16-16V384A0,0,0,0,1,24,384Z" style="fill:#ab6647"/><path d="M488,376h-9.376A23.984,23.984,0,0,0,456,344h-8V280a72.211,72.211,0,0,0-34.727-61.607A109.641,109.641,0,0,0,423.8,185.249c2.215-15.5.54-29.955-4.732-42.376l38.221-38.229a24,24,0,0,0,27.328-38.628L461.987,43.383a24.01,24.01,0,0,0-38.632,27.326L385.128,108.93c-12.421-5.272-26.872-6.947-42.377-4.732-22.637,3.234-45.106,14.476-63.772,31.818l-2.542-2.18A71.707,71.707,0,0,0,216.463,117.7l-94.31,17.47A120.008,120.008,0,0,0,24,253.16V272a119.211,119.211,0,0,0,41.8,91.007A47.836,47.836,0,0,0,64,376H24a8,8,0,0,0-8,8v16a24.039,24.039,0,0,0,16,22.624V432a40.045,40.045,0,0,0,40,40H440a40.045,40.045,0,0,0,40-40v-9.376A24.039,24.039,0,0,0,496,400V384A8,8,0,0,0,488,376ZM439.366,77.327a8,8,0,0,0,0-11.314A8,8,0,1,1,450.676,54.7l22.618,22.619a8,8,0,1,1-11.307,11.315,8,8,0,0,0-11.314,0l-39.951,39.96a63.561,63.561,0,0,0-11.315-11.315ZM355.677,119.2c14.927,0,28.515,4.773,38.43,14.688,24.955,24.954,17.341,73.17-16.97,107.481s-82.524,41.924-107.48,16.97c-11.775-11.775-16.7-29.21-13.855-49.094,2.962-20.735,13.909-41.47,30.826-58.386C307.306,130.185,333.033,119.2,355.677,119.2ZM40,272V253.16a104.007,104.007,0,0,1,85.067-102.254l94.309-17.47a55.779,55.779,0,0,1,46.647,12.548l1.876,1.608c-15.132,17.75-24.951,38.5-27.936,59.394-3.57,24.991,2.957,47.248,18.38,62.671,12.668,12.668,29.944,19.334,49.56,19.334a92.715,92.715,0,0,0,13.111-.954c24.139-3.448,48.089-16,67.437-35.351a134.92,134.92,0,0,0,16.8-20.448A56.173,56.173,0,0,1,432,280v72a8,8,0,0,0,8,8h16a8,8,0,0,1,0,16H392a40.045,40.045,0,0,0-40-40q-1.645,0-3.286.136a39.991,39.991,0,0,0-73.428,0l-.046,0-4.091-14.985A40.059,40.059,0,0,0,226.9,292.071L164.418,301C179.29,282.644,200,252.044,200,224a8,8,0,0,0-9.315-7.891c-1.914.319-42.484,7.457-63.545,40.179l-8.484-12.726a8,8,0,0,0-11.094-2.218C106.437,242.094,80,260.313,80,312v8a71.981,71.981,0,0,0,2.348,18.3,48.409,48.409,0,0,0-9.316,9.728A103.287,103.287,0,0,1,40,272Zm72,56a47.778,47.778,0,0,0-15.022,2.421A56.3,56.3,0,0,1,96,320v-8c0-28.167,8.638-43.947,14.688-51.545l10.656,15.983a8,8,0,0,0,14.084-1.467c9.747-24.369,33.522-35.606,47.382-40.241-7.146,33.884-44.057,71.2-44.467,71.613a8,8,0,0,0,6.789,13.576L229.16,307.91a24.036,24.036,0,0,1,26.552,17.447l3.483,12.757A40.062,40.062,0,0,0,232,376H160A48.055,48.055,0,0,0,112,328Zm136,48a24.027,24.027,0,0,1,24-24,24.32,24.32,0,0,1,6.57.913,8,8,0,0,0,9.981-6.016,24,24,0,0,1,46.9,0,8,8,0,0,0,9.981,6.016A24.32,24.32,0,0,1,352,352a24.027,24.027,0,0,1,24,24ZM112,344a32.036,32.036,0,0,1,32,32H80A32.036,32.036,0,0,1,112,344ZM440,456H72a24.027,24.027,0,0,1-24-24v-8H464v8A24.027,24.027,0,0,1,440,456Zm40-56a8.009,8.009,0,0,1-8,8H40a8.009,8.009,0,0,1-8-8v-8H480Z"/></svg>
