<svg id="Filled" height="512" viewBox="0 0 512 512" width="512" xmlns="http://www.w3.org/2000/svg"><path d="m320 496h-128l16-96v-32h96v32z" fill="#7e8488"/><rect fill="#b5b8b9" height="400" rx="32" width="464" x="24" y="24"/><path d="m56 24h400a32 32 0 0 1 32 32v32a0 0 0 0 1 0 0h-464a0 0 0 0 1 0 0v-32a32 32 0 0 1 32-32z" fill="#2b70a8"/><path d="m24 88h464v272h-464z" fill="#fae8d8"/><path d="m344 232h96v48h-96z" fill="#e74444"/><path d="m392 264 16.971 62.225 16.97-28.284 28.284-16.97z" fill="#6a7073"/><path d="m256 144v-16h-32v16h-32v64h32 32v-8h32v-56z" fill="#fdd14b"/><path d="m288 304a148 148 0 0 0 -96 0l-8-112h112z" fill="#e74444"/><path d="m120 176h48a48 48 0 0 1 48 48 0 0 0 0 1 0 0h-144a0 0 0 0 1 0 0 48 48 0 0 1 48-48z" fill="#ea8333"/><path d="m72 288h144a0 0 0 0 1 0 0v16a16 16 0 0 1 -16 16h-112a16 16 0 0 1 -16-16v-16a0 0 0 0 1 0 0z" fill="#ea8333"/><path d="m209.455 256c8.033 0 14.545 7.163 14.545 16 0 8.837-6.512 16-14.545 16h-130.91c-8.033 0-14.545-7.163-14.545-16 0-8.837 6.512-16 14.545-16z" fill="#794832"/><path d="m80 224h128v32h-128z" fill="#fdd14b"/><path d="m232 232c0 13.255-11.257 24-25.143 24a25.445 25.445 0 0 1 -20.952-10.735 25.815 25.815 0 0 1 -41.9 0 25.815 25.815 0 0 1 -41.9 0 25.445 25.445 0 0 1 -20.962 10.735c-13.886 0-25.143-10.745-25.143-24a8 8 0 0 1 8-8h160a8 8 0 0 1 8 8z" fill="#3ba673"/><path d="m456 16h-400a40.045 40.045 0 0 0 -40 40v336a40.045 40.045 0 0 0 40 40h141.754l-12 48h-17.754a8 8 0 0 0 0 16h176a8 8 0 0 0 0-16h-17.754l-12-48h141.754a40.045 40.045 0 0 0 40-40v-336a40.045 40.045 0 0 0 -40-40zm-253.754 464 12-48h83.508l12 48zm277.754-88a24.028 24.028 0 0 1 -24 24h-400a24.028 24.028 0 0 1 -24-24v-24h448zm0-40h-448v-256h448zm0-272h-448v-24a24.028 24.028 0 0 1 24-24h400a24.028 24.028 0 0 1 24 24z"/><circle cx="56" cy="56" r="8"/><circle cx="88" cy="56" r="8"/><circle cx="120" cy="56" r="8"/><path d="m344 288h46.254l11 40.33a8 8 0 0 0 14.578 2.012l15.941-26.57 26.57-15.941a8 8 0 0 0 -2.012-14.578l-8.331-2.272v-38.981a8 8 0 0 0 -8-8h-96a8 8 0 0 0 -8 8v48a8 8 0 0 0 8 8zm77.825 3.081a8.007 8.007 0 0 0 -2.744 2.744l-7.325 12.209-8.356-30.634 30.633 8.355zm-69.825-51.081h80v26.617l-37.9-10.335a8 8 0 0 0 -9.822 9.822l1.608 5.9h-33.886z"/><path d="m360 144h64a8 8 0 0 0 0-16h-64a8 8 0 0 0 0 16z"/><path d="m344 176h24a8 8 0 0 0 0-16h-24a8 8 0 0 0 0 16z"/><path d="m408 168a8 8 0 0 0 8 8h24a8 8 0 0 0 0-16h-24a8 8 0 0 0 -8 8z"/><path d="m344 208h24a8 8 0 0 0 0-16h-24a8 8 0 0 0 0 16z"/><path d="m440 192h-24a8 8 0 0 0 0 16h24a8 8 0 0 0 0-16z"/><path d="m240 400h32a8 8 0 0 0 0-16h-32a8 8 0 0 0 0 16z"/><path d="m60.794 257.231a24.868 24.868 0 0 0 -4.794 14.769 24.6 24.6 0 0 0 8 18.316v13.684a24.028 24.028 0 0 0 24 24h112a24.027 24.027 0 0 0 23.976-23.037 141.131 141.131 0 0 1 61.494 6.627 8 8 0 0 0 10.509-7.02l8-112a8 8 0 0 0 -7.979-8.57v-40a8 8 0 0 0 -8-8h-24v-8a8 8 0 0 0 -8-8h-32a8 8 0 0 0 -8 8v8h-24a8 8 0 0 0 -8 8v26.341a55.823 55.823 0 0 0 -16-2.341h-48a56.078 56.078 0 0 0 -55.419 48h-.581a16.019 16.019 0 0 0 -16 16 31.581 31.581 0 0 0 12.794 25.231zm147.206 46.769a8.009 8.009 0 0 1 -8 8h-112a8.009 8.009 0 0 1 -8-8v-8h128zm1.454-24h-130.908c-3.609 0-6.546-3.589-6.546-8s2.937-8 6.546-8v-.107c.858.064 1.722.107 2.6.107a33.833 33.833 0 0 0 20.953-7.2 34.074 34.074 0 0 0 41.9 0 34.074 34.074 0 0 0 41.9 0 33.833 33.833 0 0 0 20.953 7.2c.875 0 1.739-.043 2.6-.107v.107c3.609 0 6.546 3.589 6.546 8s-2.935 8-6.544 8zm54.546-128h16v32h-16zm-32-8v-8h16v48h-16zm55.408 56-6.676 93.467a155.665 155.665 0 0 0 -55.105-4.77 25.1 25.1 0 0 0 1.579-31.466 31.581 31.581 0 0 0 12.794-25.231 16.019 16.019 0 0 0 -16-16h-.581a55.52 55.52 0 0 0 -4.833-16zm-87.408-48h16v32h-8.861a56.464 56.464 0 0 0 -7.139-5.917zm-80 32h48a40.069 40.069 0 0 1 39.2 32h-126.395a40.069 40.069 0 0 1 39.195-32zm104 47.99v.01c0 8.822-7.69 16-17.143 16a17.442 17.442 0 0 1 -14.387-7.307 8 8 0 0 0 -13.131 0 17.818 17.818 0 0 1 -28.774 0 8 8 0 0 0 -13.13 0 17.818 17.818 0 0 1 -28.774 0 8 8 0 0 0 -13.131 0 17.442 17.442 0 0 1 -14.387 7.307c-9.453 0-17.143-7.178-17.143-16z"/></svg>