<svg id="Filled" height="512" viewBox="0 0 512 512" width="512" xmlns="http://www.w3.org/2000/svg"><path d="m112 352h48v88h-48z" fill="#f5cbaa"/><path d="m352 352h48v88h-48z" fill="#f5cbaa"/><path d="m280 208h-48l-68.551 13.71a64 64 0 0 0 -51.449 62.757v67.533h48v136h192v-136h48v-67.533a64 64 0 0 0 -51.449-62.757z" fill="#e74444"/><path d="m320 216-40 40-24-24v-24h24z" fill="#ce3536"/><path d="m192 216 40 40 24-24v-24h-24z" fill="#ce3536"/><path d="m280 208-24 24-24-24v-64h48z" fill="#deb89a"/><path d="m200 64h112a0 0 0 0 1 0 0v64a48 48 0 0 1 -48 48h-16a48 48 0 0 1 -48-48v-64a0 0 0 0 1 0 0z" fill="#f5cbaa"/><path d="m144 416h208v72h-208z" fill="#794832"/><path d="m192 328h128v80h-128z" fill="#ab6647"/><path d="m144 392h224v48h-224z" fill="#93573d"/><path d="m112 408h32a0 0 0 0 1 0 0v24a16 16 0 0 1 -16 16 16 16 0 0 1 -16-16v-24a0 0 0 0 1 0 0z" fill="#deb89a" transform="matrix(-1 0 0 -1 256 856)"/><path d="m128 440h32a16 16 0 0 1 16 16v32a0 0 0 0 1 0 0h-48a16 16 0 0 1 -16-16v-16a16 16 0 0 1 16-16z" fill="#f5cbaa" transform="matrix(-1 0 0 -1 288 928)"/><path d="m384 408a16 16 0 0 1 16 16v24a0 0 0 0 1 0 0h-32a0 0 0 0 1 0 0v-24a16 16 0 0 1 16-16z" fill="#deb89a"/><path d="m352 440h48a0 0 0 0 1 0 0v32a16 16 0 0 1 -16 16h-32a16 16 0 0 1 -16-16v-16a16 16 0 0 1 16-16z" fill="#f5cbaa"/><path d="m320 104h-128v-44.912a16 16 0 0 1 10.382-14.981l48-18a15.993 15.993 0 0 1 11.236 0l48 18a16 16 0 0 1 10.382 14.981z" fill="#fc8d36"/><path d="m192 104s16-40 64-40 64 40 64 40z" fill="#ea8333"/><circle cx="256" cy="304" r="8"/><circle cx="256" cy="272" r="8"/><path d="m350.119 213.865-62.119-12.423v-22.856a56.069 56.069 0 0 0 32-50.586v-16a8 8 0 0 0 8-8v-44.912a24.111 24.111 0 0 0 -15.573-22.472l-48-18a23.994 23.994 0 0 0 -16.854 0l-48 18a24.111 24.111 0 0 0 -15.573 22.472v44.912a8 8 0 0 0 8 8v16a56.069 56.069 0 0 0 32 50.586v22.856l-62.118 12.423a72.19 72.19 0 0 0 -57.882 70.605v187.53a24.028 24.028 0 0 0 24 24h256a24.028 24.028 0 0 0 24-24v-187.53a72.19 72.19 0 0 0 -57.881-70.605zm-120.748 2.819 15.315 15.316-12.686 12.686-23.773-23.773zm53.258 0 21.144 4.229-23.773 23.773-12.686-12.686zm-76.593-120.684c7.825-10.274 23.264-24 49.964-24s42.148 13.734 49.967 24zm-.845-44.4 48-18a7.991 7.991 0 0 1 5.618 0l48 18a8.036 8.036 0 0 1 5.191 7.488v19.5c-11.115-11.288-28.986-22.588-56-22.588s-44.885 11.3-56 22.588v-19.5a8.036 8.036 0 0 1 5.191-7.488zm2.809 76.4v-16h96v16a40.045 40.045 0 0 1 -40 40h-16a40.045 40.045 0 0 1 -40-40zm40 56h16a56.14 56.14 0 0 0 8-.581v21.268l-16 16-16-16v-21.268a56.14 56.14 0 0 0 8 .581zm64 200h-112v-48h112zm48 16v32h-208v-32zm0-40h32v41.376a23.944 23.944 0 0 0 -16 0v-9.376a8 8 0 0 0 -8-8h-8zm-30.624 120h-146.752a23.885 23.885 0 0 0 1.376-8v-16a23.885 23.885 0 0 0 -1.376-8h146.752a23.885 23.885 0 0 0 -1.376 8v16a23.885 23.885 0 0 0 1.376 8zm-209.376-56a8 8 0 0 1 16 0v8h-16zm32-40h-8a8 8 0 0 0 -8 8v9.376a23.944 23.944 0 0 0 -16 0v-41.376h32zm-24 96a8.009 8.009 0 0 1 -8-8v-24h40a8.009 8.009 0 0 1 8 8v16a8.009 8.009 0 0 1 -8 8zm264-8a8.009 8.009 0 0 1 -8 8h-32a8.009 8.009 0 0 1 -8-8v-16a8.009 8.009 0 0 1 8-8h40zm0-40h-16v-8a8 8 0 0 1 16 0zm0-88h-32v-24a8 8 0 0 0 -16 0v64h-16v-56a8 8 0 0 0 -8-8h-128a8 8 0 0 0 -8 8v56h-16v-64a8 8 0 0 0 -16 0v24h-32v-59.53a56.147 56.147 0 0 1 45.019-54.915l24.352-4.871 36.972 36.973a8 8 0 0 0 11.314 0l18.343-18.344 18.343 18.344a8 8 0 0 0 11.314 0l36.972-36.973 24.353 4.871a56.147 56.147 0 0 1 45.018 54.915z"/></svg>