<svg id="Filled" height="512" viewBox="0 0 512 512" width="512" xmlns="http://www.w3.org/2000/svg"><path d="m192 88h16a0 0 0 0 1 0 0v32a0 0 0 0 1 0 0h-32a0 0 0 0 1 0 0v-16a16 16 0 0 1 16-16z" fill="#99a2a7"/><circle cx="88" cy="360" fill="#6a7073" r="64"/><circle cx="88" cy="360" fill="#99a2a7" r="16"/><path d="m72 272c-24 0-48 16-48 32h80v-32z" fill="#2b70a8"/><circle cx="408" cy="360" fill="#6a7073" r="64"/><path d="m296 344h112a16 16 0 0 1 16 16 16 16 0 0 1 -16 16h-112a0 0 0 0 1 0 0v-32a0 0 0 0 1 0 0z" fill="#99a2a7"/><path d="m344 88h144v128h-144z" fill="#e74444"/><path d="m344 88h144a0 0 0 0 1 0 0 32 32 0 0 1 -32 32h-80a32 32 0 0 1 -32-32 0 0 0 0 1 0 0z" fill="#ea8333"/><path d="m344 216-48 16h-32a32 32 0 0 0 -25.6 12.8l-14.4 19.2 40 40-32 40h-48s-32-80 24-152v-16h-32v16s-72 16-104 80l88 104h144l136-104 16-56z" fill="#155384"/><path d="m176 152h16a0 0 0 0 1 0 0v40a0 0 0 0 1 0 0h-48a0 0 0 0 1 0 0v-8a32 32 0 0 1 32-32z" fill="#fdd14b"/><path d="m176 152h32v40h-32z" fill="#2b70a8"/><path d="m424 216-120 48h-80l14.4-19.2a32 32 0 0 1 25.6-12.8h32l48-16z" fill="#99a2a7"/><path d="m456 216-9.14 32h-6.86a16 16 0 0 1 -16-16v-16z" fill="#fdd14b"/><path d="m488 80h-144a8 8 0 0 0 -8 8v122.234l-41.3 13.766h-30.7a40.175 40.175 0 0 0 -32 16l-14.4 19.2a8 8 0 0 0 .743 10.457l34.937 34.937-25.125 31.406h-38.424a163.062 163.062 0 0 1 -6.755-41.873c-1.121-36.33 9.423-69.038 31.339-97.215h-.006a7.954 7.954 0 0 0 1.691-4.912v-40a8 8 0 0 0 -8-8h-24v-16h24a8 8 0 0 0 8-8v-32a8 8 0 0 0 -8-8h-16a24.027 24.027 0 0 0 -24 24v40.805a40.067 40.067 0 0 0 -32 39.195v8a7.976 7.976 0 0 0 2.344 5.658c-23.281 11.6-52.6 32.078-71.287 66.539-26.88 2.049-51.057 20.425-51.057 39.803a8 8 0 0 0 8 8h10.338a72 72 0 1 0 121.89 71.042 7.986 7.986 0 0 0 3.772.958h180.094a72 72 0 1 0 88.265-93.027l13.99-10.7 25.683 14.671a8 8 0 1 0 7.936-13.892l-25.992-14.848 12.058-42.204h25.966a8 8 0 0 0 8-8v-128a8 8 0 0 0 -8-8zm-136 80h16v48h-16zm32 48v-48h64v48zm-32-64v-24.022a39.788 39.788 0 0 0 24 8.022h80a39.788 39.788 0 0 0 24-8.022v24.022zm104-32h-80a24.038 24.038 0 0 1 -22.624-16h125.248a24.038 24.038 0 0 1 -22.624 16zm-192 128h32a8 8 0 0 0 2.53-.411l46.77-15.589h37.161l-80 32h-62.461l4.8-6.4a24.1 24.1 0 0 1 19.2-9.6zm-64-56h-16v-24h16zm-16-80a8.009 8.009 0 0 1 8-8h8v16h-16zm-16 57.376v22.624h-16a24.038 24.038 0 0 1 16-22.624zm-99.584 118.773 13.412 15.851h-46.607c5.858-7.649 18.979-14.792 33.195-15.851zm19.584 135.851a56.007 56.007 0 0 1 -28.863-104h36.23l13.438 15.882-10.464 10.463a24.008 24.008 0 1 0 11.314 11.314l9.521-9.521 24.145 28.536a55.718 55.718 0 0 1 -55.321 47.326zm8-56a8 8 0 1 1 -8-8 8.009 8.009 0 0 1 8 8zm205.292 8h-137.581l-82.119-97.049c29.119-52.586 87.965-69.063 95.37-70.951h15.626c-22.359 35.069-26.436 70.539-25.583 95.276 1.036 30.052 9.219 50.826 9.567 51.695a8 8 0 0 0 7.428 5.029h48a8 8 0 0 0 6.247-3l32-40a8 8 0 0 0 -.59-10.655l-26.343-26.345h60.686a8 8 0 0 0 2.971-.572l109.029-43.612v4.184a24.038 24.038 0 0 0 20.331 23.72l-3.3 11.535zm47.266-16h59.442a8 8 0 1 1 0 16h-80.367zm20.92-16 12.716-9.724 4.862 9.724zm94.522 24a56.012 56.012 0 0 1 -106.616 24h50.616a24 24 0 0 0 0-48h-3.056l-9.81-19.62 16.058-12.28a56.166 56.166 0 0 1 52.808 55.9zm-23.177-120h-.823a8.009 8.009 0 0 1 -8-8v-8h13.394zm23.177-32v-48h16v48z"/></svg>