<svg id="Filled" height="512" viewBox="0 0 512 512" width="512" xmlns="http://www.w3.org/2000/svg"><path d="m304 24v464l-24-16-24 16-24-16-24 16-24-16-24 16-24-16-24 16-24-16-24 16v-464z" fill="#fae8d8"/><circle cx="368" cy="368" fill="#e74444" r="96"/><circle cx="336" cy="336" fill="#fae8d8" r="16"/><circle cx="400" cy="400" fill="#fae8d8" r="16"/><path d="m112 128h16a8 8 0 0 1 0 16h-24a8 8 0 0 0 0 16h8v8a8 8 0 0 0 16 0v-8a24 24 0 0 0 0-48h-16a8 8 0 0 1 0-16h24a8 8 0 0 0 0-16h-8v-8a8 8 0 0 0 -16 0v8a24 24 0 0 0 0 48z"/><path d="m216 96h56a8 8 0 0 0 0-16h-56a8 8 0 0 0 0 16z"/><path d="m176 160h56a8 8 0 0 0 0-16h-56a8 8 0 0 0 0 16z"/><path d="m176 128h96a8 8 0 0 0 0-16h-96a8 8 0 0 0 0 16z"/><path d="m96 208h176a8 8 0 0 0 0-16h-176a8 8 0 0 0 0 16z"/><path d="m280 232a8 8 0 0 0 -8-8h-176a8 8 0 0 0 0 16h176a8 8 0 0 0 8-8z"/><path d="m168 256h-40a8 8 0 0 0 0 16h40a8 8 0 0 0 0-16z"/><path d="m168 288h-40a8 8 0 0 0 0 16h40a8 8 0 0 0 0-16z"/><path d="m168 320h-40a8 8 0 0 0 0 16h40a8 8 0 0 0 0-16z"/><path d="m272 256h-24a8 8 0 0 0 0 16h24a8 8 0 0 0 0-16z"/><path d="m272 288h-24a8 8 0 0 0 0 16h24a8 8 0 0 0 0-16z"/><path d="m240 416h-112a8 8 0 0 0 0 16h112a8 8 0 0 0 0-16z"/><circle cx="184" cy="88" r="8"/><circle cx="96" cy="264" r="8"/><circle cx="96" cy="296" r="8"/><circle cx="96" cy="328" r="8"/><path d="m168 352h-40a8 8 0 0 0 0 16h40a8 8 0 0 0 0-16z"/><circle cx="96" cy="360" r="8"/><path d="m168 384h-40a8 8 0 0 0 0 16h40a8 8 0 0 0 0-16z"/><circle cx="96" cy="392" r="8"/><path d="m368 264a103.388 103.388 0 0 0 -56 16.4v-256.4a8 8 0 0 0 -8-8h-240a8 8 0 0 0 -8 8v464a8 8 0 0 0 12.438 6.656l19.562-13.041 19.562 13.041a8 8 0 0 0 8.876 0l19.562-13.041 19.562 13.041a8 8 0 0 0 8.876 0l19.562-13.041 19.562 13.041a8 8 0 0 0 8.876 0l19.562-13.041 19.562 13.041a8 8 0 0 0 8.876 0l19.562-13.041 19.562 13.041a8 8 0 0 0 12.438-6.656v-32.4a103.988 103.988 0 1 0 56-191.6zm-72 209.052-11.562-7.708a8 8 0 0 0 -8.876 0l-19.562 13.041-19.562-13.041a8 8 0 0 0 -8.876 0l-19.562 13.041-19.562-13.041a8 8 0 0 0 -8.876 0l-19.562 13.041-19.562-13.041a8 8 0 0 0 -8.876 0l-19.562 13.041-19.562-13.041a8 8 0 0 0 -8.876 0l-11.562 7.708v-441.052h224v261.026a104.587 104.587 0 0 0 -20.633 27.724 7.97 7.97 0 0 0 -3.367-.75h-24a8 8 0 0 0 0 16h21.044a103.132 103.132 0 0 0 -3.813 16h-17.231a8 8 0 0 0 0 16h16a104.357 104.357 0 0 0 1.231 16h-17.231a8 8 0 0 0 0 16h21.044a104.2 104.2 0 0 0 26.956 42.974zm72-17.052a88 88 0 1 1 88-88 88.1 88.1 0 0 1 -88 88z"/><path d="m396.116 321.14a8 8 0 0 0 -10.976 2.744l-48 80a8 8 0 1 0 13.72 8.232l48-80a8 8 0 0 0 -2.744-10.976z"/><path d="m360 336a24 24 0 1 0 -24 24 24.027 24.027 0 0 0 24-24zm-24 8a8 8 0 1 1 8-8 8.009 8.009 0 0 1 -8 8z"/><path d="m400 376a24 24 0 1 0 24 24 24.027 24.027 0 0 0 -24-24zm0 32a8 8 0 1 1 8-8 8.009 8.009 0 0 1 -8 8z"/></svg>