<svg id="Filled" height="512" viewBox="0 0 512 512" width="512" xmlns="http://www.w3.org/2000/svg"><path d="m24 72h192v128h-192z" fill="#efdece"/><path d="m88 72h64v128h-64z" fill="#d8c8b9"/><path d="m440 320a48 48 0 0 0 -48 48c0 56 48 88 48 88s48-32 48-88a48 48 0 0 0 -48-48z" fill="#e74444"/><circle cx="440" cy="368" fill="#fdd14b" r="16"/><path d="m144 96c24 0 24-24 24-24h-48s0 24 24 24z" fill="#e74444"/><path d="m192 96c24 0 24-24 24-24h-48s0 24 24 24z" fill="#fdd14b"/><path d="m40 24-16 48h48 48 48 48l-16-48z" fill="#155384"/><path d="m48 96c24 0 24-24 24-24h-48s0 24 24 24z" fill="#e74444"/><path d="m96 96c24 0 24-24 24-24h-48s0 24 24 24z" fill="#fdd14b"/><path d="m24 168h64v32h-64z" fill="#155384"/><path d="m152 168h64v32h-64z" fill="#155384"/><path d="m440 480h-344a64 64 0 0 1 0-128h208a80 80 0 0 0 0-160h-80v-120a8.027 8.027 0 0 0 -.41-2.53l-16-48a8 8 0 0 0 -7.59-5.47h-160a8 8 0 0 0 -7.59 5.47l-16 48a8.027 8.027 0 0 0 -.41 2.53v128a8 8 0 0 0 8 8h280a64 64 0 0 1 0 128h-208a80 80 0 0 0 0 160h344a8 8 0 0 0 0-16zm-245.766-448 8 24h-28.79l-4-24zm13.686 41.058a21.887 21.887 0 0 1 -2.267 7.736c-2.613 4.916-6.953 7.206-13.653 7.206s-11.04-2.29-13.653-7.206a22.084 22.084 0 0 1 -2.347-8.794h31.567zm-54.698-41.058 4 24h-29.222v-24zm-41.222 0v24h-29.222l4-24zm-66.234 0h24.79l-4 24h-28.79zm-13.333 40h31.567a22.029 22.029 0 0 1 -2.345 8.794c-2.615 4.916-6.955 7.206-13.655 7.206s-11.04-2.29-13.653-7.206a21.907 21.907 0 0 1 -2.268-7.732zm47.567 120h-48v-16h48zm0-32h-48v-59.765a33.1 33.1 0 0 0 16 3.765c11.136 0 18.907-4.306 24-10.2a28.377 28.377 0 0 0 8 6.442zm2.347-79.206a22.086 22.086 0 0 1 -2.319-8.3l.083-.5h31.889a22.029 22.029 0 0 1 -2.345 8.794c-2.615 4.922-6.955 7.212-13.655 7.212s-11.04-2.29-13.653-7.206zm61.653 87.206v24h-48v-32h48zm0-24h-48v-40c11.136 0 18.907-4.306 24-10.2 5.093 5.9 12.864 10.2 24 10.2zm13.653-63.206c-2.613 4.916-6.953 7.206-13.653 7.206s-11.04-2.29-13.653-7.206a22.084 22.084 0 0 1 -2.347-8.794h31.889l.081.488a22.042 22.042 0 0 1 -2.317 8.306zm50.347 111.206h-48v-16h48zm0-32h-48v-59.762a28.377 28.377 0 0 0 8-6.442c5.093 5.9 12.864 10.2 24 10.2a33.1 33.1 0 0 0 16-3.765z"/><path d="m440 344a24 24 0 1 0 24 24 24.028 24.028 0 0 0 -24-24zm0 32a8 8 0 1 1 8-8 8.009 8.009 0 0 1 -8 8z"/><path d="m440 312a56.063 56.063 0 0 0 -56 56c0 59.6 49.457 93.253 51.562 94.656a8 8 0 0 0 8.876 0c2.105-1.403 51.562-35.056 51.562-94.656a56.063 56.063 0 0 0 -56-56zm-.015 133.957c-11.263-9.181-39.985-36.647-39.985-77.957a40 40 0 0 1 80 0c0 41.142-28.771 68.744-40.015 77.957z"/></svg>