<svg id="Filled" height="512" viewBox="0 0 512 512" width="512" xmlns="http://www.w3.org/2000/svg"><path d="m144 24h256v432h-256z" fill="#e74444"/><path d="m328 88h24v368h-160v-368h24a32 32 0 0 1 32-32h48a32 32 0 0 1 32 32z" fill="#ce3536"/><circle cx="240" cy="248" fill="#6a7073" r="16"/><path d="m272 360a96 96 0 0 0 -96 96v16h192v-16a96 96 0 0 0 -96-96z" fill="#d9dbdd"/><path d="m112 456h320a0 0 0 0 1 0 0v16a16 16 0 0 1 -16 16h-288a16 16 0 0 1 -16-16v-16a0 0 0 0 1 0 0z" fill="#c2c5c6"/><path d="m240 224a24 24 0 1 0 24 24 24.027 24.027 0 0 0 -24-24zm0 32a8 8 0 1 1 8-8 8.009 8.009 0 0 1 -8 8z"/><path d="m464 480h-24v-24a8 8 0 0 0 -8-8h-24v-424a8 8 0 0 0 -8-8h-256a8 8 0 0 0 -8 8v424h-24a8 8 0 0 0 -8 8v24h-24a8 8 0 0 0 0 16h384a8 8 0 0 0 0-16zm-312-448h240v416h-16.3a103.3 103.3 0 0 0 -15.7-47.363v-312.637a8 8 0 0 0 -8-8h-16.8a40.071 40.071 0 0 0 -39.2-32h-48a40.071 40.071 0 0 0 -39.2 32h-16.8a8 8 0 0 0 -8 8v312.637a103.3 103.3 0 0 0 -15.695 47.363h-16.305zm136 288h-32a8 8 0 0 0 0 16h8v16.3a103.667 103.667 0 0 0 -64 28.721v-285.021h16a8 8 0 0 0 8-8 24.028 24.028 0 0 1 24-24h48a24.028 24.028 0 0 1 24 24 8 8 0 0 0 8 8h16v285.026a103.667 103.667 0 0 0 -64-28.721v-16.305h8a8 8 0 0 0 0-16zm-16 48a88.118 88.118 0 0 1 87.633 80h-175.266a88.118 88.118 0 0 1 87.633-80zm152 112h-304v-16h304z"/></svg>