<svg id="Filled" height="512" viewBox="0 0 512 512" width="512" xmlns="http://www.w3.org/2000/svg"><path d="m288 280h112l8 32v144l-8 32h-112l-8-32v-144z" fill="#e74444"/><path d="m280 312h128v144h-128z" fill="#794832"/><path d="m144 24h48v72h-48z" fill="#e74444"/><path d="m232 336v-128s8-8 8-32-48-104-48-104h-48s-48 80-48 104 8 32 8 32v128l-12.622 25.243a32.011 32.011 0 0 0 -3.378 14.311v79.846a31.829 31.829 0 0 0 25.9 31.413 78.6 78.6 0 0 0 14.1 1.187c32 0 40-16 40-16s8 16 40 16a78.6 78.6 0 0 0 14.1-1.19 31.829 31.829 0 0 0 25.9-31.41v-79.846a32.011 32.011 0 0 0 -3.378-14.311z" fill="#a4d4f4"/><path d="m248 375.55v79.85a31.832 31.832 0 0 1 -25.9 31.41 78.9 78.9 0 0 1 -14.1 1.19c-32 0-40-16-40-16s-8 16-40 16a78.9 78.9 0 0 1 -14.1-1.19 31.832 31.832 0 0 1 -25.9-31.41v-79.85a32.066 32.066 0 0 1 3.38-14.31l12.62-25.24v-128s-8-8-8-32c0-11.29 10.62-34.96 21.86-56.88h100.28c11.24 21.92 21.86 45.59 21.86 56.88 0 24-8 32-8 32v128l12.62 25.24a32.066 32.066 0 0 1 3.38 14.31z" fill="#794832"/><path d="m104 208h128v128h-128z" fill="#e74444"/><path d="m240 334.111v-123.411c3.152-4.74 8-15.2 8-34.7 0-24.114-39.5-91.9-48-106.206v-45.794a8 8 0 0 0 -8-8h-48a8 8 0 0 0 -8 8v45.794c-8.5 14.306-48 82.092-48 106.206 0 19.5 4.848 29.963 8 34.7v123.411l-11.777 23.555a40.191 40.191 0 0 0 -4.223 17.888v79.846a39.764 39.764 0 0 0 32.463 39.284 87.03 87.03 0 0 0 15.537 1.316c21.068 0 33.287-6.311 40-11.95 6.713 5.639 18.932 11.95 40 11.95a87.011 87.011 0 0 0 15.536-1.32 39.764 39.764 0 0 0 32.464-39.28v-79.846a40.191 40.191 0 0 0 -4.223-17.888zm-52.548-254.111c5.4 9.137 11.522 19.987 17.468 31.12h-73.838c5.945-11.133 12.07-21.983 17.467-31.12zm-3.452-48v32h-32v-32zm-61.219 95.12h90.44c10.485 20.88 18.779 40.355 18.779 48.88 0 13.065-2.585 20.489-4.318 24h-119.364c-1.733-3.511-4.318-10.935-4.318-24 0-8.521 8.3-28 18.781-48.88zm101.219 200.88h-112v-112h112zm16 127.4a23.77 23.77 0 0 1 -19.334 23.543 71 71 0 0 1 -12.666 1.057c-24.947 0-32.137-10.458-32.884-11.667a7.72 7.72 0 0 0 -14.232 0c-.747 1.209-7.937 11.667-32.884 11.667a71.018 71.018 0 0 1 -12.667-1.061 23.77 23.77 0 0 1 -19.333-23.539v-79.846a24.127 24.127 0 0 1 2.533-10.733l10.411-20.821h118.112l10.411 20.821a24.127 24.127 0 0 1 2.533 10.733z"/><circle cx="144" cy="376" r="8"/><circle cx="120" cy="400" r="8"/><circle cx="144" cy="424" r="8"/><circle cx="152" cy="152" r="8"/><circle cx="128" cy="176" r="8"/><path d="m407.761 278.06a8 8 0 0 0 -7.761-6.06h-112a8 8 0 0 0 -7.761 6.06l-8 32a7.977 7.977 0 0 0 -.239 1.94v144a7.977 7.977 0 0 0 .239 1.94l8 32a8 8 0 0 0 7.761 6.06h112a8 8 0 0 0 7.761-6.06l8-32a7.977 7.977 0 0 0 .239-1.94v-144a7.977 7.977 0 0 0 -.239-1.94zm-119.761 169.94v-128h112v128zm105.754-160 4 16h-107.508l4-16zm-99.508 192-4-16h107.508l-4 16z"/><circle cx="336" cy="344" r="8"/><circle cx="312" cy="368" r="8"/><circle cx="336" cy="392" r="8"/></svg>