<svg id="Filled" height="512" viewBox="0 0 512 512" width="512" xmlns="http://www.w3.org/2000/svg"><path d="m160 80h80v56h-80z" fill="#6a7073"/><path d="m446.571 264-30.377-88-.194-48h-392v48 216h464v-112z" fill="#e74444"/><path d="m72 136h256v168h-256z" fill="#a4d4f4"/><path d="m104 128h-48v24s0 24 24 24 24-24 24-24 0 24 24 24 24-24 24-24 0 24 24 24 24-24 24-24 0 24 24 24 24-24 24-24 0 24 24 24 24-24 24-24 0 24 24 24 24-24 24-24v-24z" fill="#fae8d8"/><g fill="#155384"><path d="m152 128h-48v24s0 24 24 24 24-24 24-24z"/><path d="m248 128h-48v24s0 24 24 24 24-24 24-24z"/><path d="m344 128h-48v24s0 24 24 24 24-24 24-24z"/><path d="m120 264h32a16 16 0 0 1 16 16v24a0 0 0 0 1 0 0h-64a0 0 0 0 1 0 0v-24a16 16 0 0 1 16-16z"/></g><path d="m120 224h32a0 0 0 0 1 0 0v32a16 16 0 0 1 -16 16 16 16 0 0 1 -16-16v-32a0 0 0 0 1 0 0z" fill="#f5cbaa"/><path d="m128 208h32a0 0 0 0 1 0 0v16a16 16 0 0 1 -16 16h-32a0 0 0 0 1 0 0v-16a16 16 0 0 1 16-16z" fill="#794832"/><path d="m200 272h128v32h-128z" fill="#99a2a7"/><path d="m160 96-16-24v-24h112v24l-16 24z" fill="#99a2a7"/><path d="m446.571 264h-70.571v-88h40.194z" fill="#a4d4f4"/><path d="m456 360h32v32h-32z" fill="#fdd14b"/><circle cx="360" cy="392" fill="#6a7073" r="48"/><circle cx="360" cy="392" fill="#99a2a7" r="16"/><path d="m24 360h64v32h-64z" fill="#fdd14b"/><path d="m72 336h120v128h-120z" fill="#93573d"/><path d="m32 464 40-128v128z" fill="#794832"/><path d="m232 240h64v32h-64z" fill="#6a7073"/><path d="m490.882 272.537-37.962-14.661-28.734-83.233-.186-46.675a8 8 0 0 0 -8-7.968h-168v-21.578l14.656-21.984a8 8 0 0 0 1.344-4.438v-24a8 8 0 0 0 -8-8h-112a8 8 0 0 0 -8 8v24a8 8 0 0 0 1.344 4.438l14.656 21.984v21.578h-128a8 8 0 0 0 -8 8v264a8 8 0 0 0 8 8h19.619l-19.255 61.614a8 8 0 0 0 7.636 10.386h160a8 8 0 0 0 8-8v-64h104.581a55.992 55.992 0 0 0 110.838 0h72.581a8 8 0 0 0 8-8v-112a8 8 0 0 0 -5.118-7.463zm-55.537-16.537h-51.345v-72h26.489zm-131.345-120h32v16a22.5 22.5 0 0 1 -2.155 8.422c-2.585 5.17-6.985 7.578-13.845 7.578-6.7 0-11.04-2.29-13.653-7.206a22.084 22.084 0 0 1 -2.347-8.794zm-48 0h32v16a22.5 22.5 0 0 1 -2.155 8.422c-2.585 5.17-6.985 7.578-13.845 7.578-6.7 0-11.041-2.29-13.653-7.206a22.064 22.064 0 0 1 -2.347-8.794zm-104-80h96v13.578l-12.281 18.422h-71.438l-12.281-18.422zm16 64v-16h64v16zm24 16v16a22.482 22.482 0 0 1 -2.155 8.422c-2.585 5.17-6.985 7.578-13.845 7.578-6.7 0-11.041-2.29-13.653-7.206a22.064 22.064 0 0 1 -2.347-8.794v-16zm16 0h32v16a22.482 22.482 0 0 1 -2.155 8.422c-2.585 5.17-6.985 7.578-13.845 7.578-6.7 0-11.041-2.29-13.653-7.206a22.064 22.064 0 0 1 -2.347-8.794zm-96 0h32v16a22.482 22.482 0 0 1 -2.155 8.422c-2.585 5.17-6.985 7.578-13.845 7.578-6.7 0-11.041-2.29-13.653-7.206a22.064 22.064 0 0 1 -2.347-8.794zm-8 37.8c5.093 5.9 12.864 10.2 24 10.2s18.907-4.306 24-10.2c5.093 5.9 12.864 10.2 24 10.2s18.907-4.306 24-10.2c5.093 5.9 12.864 10.2 24 10.2s18.907-4.306 24-10.2c5.093 5.9 12.864 10.2 24 10.2s18.907-4.306 24-10.2c5.093 5.9 12.864 10.2 24 10.2v80h-16v-24a8 8 0 0 0 -8-8h-64a8 8 0 0 0 -8 8v24h-24a8 8 0 0 0 -8 8v24h-16v-16a24.039 24.039 0 0 0 -16.041-22.638c.025-.451.041-.9.041-1.362v-14.131a23.943 23.943 0 0 0 8-17.869v-16a8 8 0 0 0 -8-8h-32a24.027 24.027 0 0 0 -24 24v16a8 8 0 0 0 8 8v8c0 .458.016.911.041 1.362a24.039 24.039 0 0 0 -16.041 22.638v16h-16v-112c11.136 0 18.907-4.306 24-10.2zm216 106.2v16h-112v-16zm-80-16v-16h48v16zm-120-32v-8a8.009 8.009 0 0 1 8-8h24v8a8.009 8.009 0 0 1 -8 8zm24 16v8a8 8 0 0 1 -16 0v-8zm-8 32a23.944 23.944 0 0 0 17.7-7.813 8.01 8.01 0 0 1 6.3 7.813v16h-48v-16a8.01 8.01 0 0 1 6.3-7.813 23.944 23.944 0 0 0 17.7 7.813zm-72-144h32v16a22.482 22.482 0 0 1 -2.155 8.422c-2.585 5.17-6.985 7.578-13.845 7.578-6.7 0-11.041-2.29-13.653-7.206a22.064 22.064 0 0 1 -2.347-8.794zm-32 248v-16h21.619l-5 16zm32 72h-21.119l21.119-67.58zm120 0h-104v-112h104zm120.581-72h-104.581v-48a8 8 0 0 0 -8-8h-120a8 8 0 0 0 -7.652 5.666l-5.729 18.334h-26.619v-216h16v16c0 9.354 4.514 22.018 16 28.235v123.765a8 8 0 0 0 8 8h256a8 8 0 0 0 8-8v-123.765c11.486-6.218 16-18.881 16-28.235v-16h56.031l.128 32h-32.159a8 8 0 0 0 -8 8v160.581a55.944 55.944 0 0 0 -63.419 47.419zm55.419 48a40 40 0 1 1 40-40 40.045 40.045 0 0 1 -40 40zm120-48h-16v-16h16zm0-32h-24a8 8 0 0 0 -8 8v24h-32.581a56.145 56.145 0 0 0 -31.419-42.586v-69.414h61.079l34.921 13.486z"/><path d="m424 280h-16a8 8 0 0 0 0 16h16a8 8 0 0 0 0-16z"/><path d="m360 368a24 24 0 1 0 24 24 24.028 24.028 0 0 0 -24-24zm0 32a8 8 0 1 1 8-8 8.009 8.009 0 0 1 -8 8z"/><path d="m104 376h56a8 8 0 0 0 0-16h-56a8 8 0 0 0 0 16z"/><path d="m104 408h56a8 8 0 0 0 0-16h-56a8 8 0 0 0 0 16z"/><path d="m104 440h56a8 8 0 0 0 0-16h-56a8 8 0 0 0 0 16z"/></svg>