<?xml version="1.0"?>
<svg xmlns="http://www.w3.org/2000/svg" id="Filled" viewBox="0 0 512 512" width="512" height="512"><path d="M488,120V72H392V184H312V24H264V184H24v48H264v72H24v48H72v88H24v48H488V440H312V232H488V184H440V120ZM264,440H120V352H264Z" style="fill:#6a7073"/><polygon points="24 24 24 152 88 152 120 200 152 152 216 152 216 24 24 24" style="fill:#ab6647"/><path d="M408,320a48,48,0,0,0-48,48h0c0,56,48,88,48,88s48-32,48-88h0a48,48,0,0,0-48-48Z" style="fill:#e74444"/><circle cx="408" cy="368" r="16" style="fill:#fdd14b"/><path d="M168,120a48,48,0,0,0-96,0Z" style="fill:#d9dbdd"/><path d="M264,344H120a8,8,0,0,0-8,8v88a8,8,0,0,0,8,8H264a8,8,0,0,0,8-8V352A8,8,0,0,0,264,344Zm-8,88H128V360H256Z"/><path d="M488,128a8,8,0,0,0,8-8V72a8,8,0,0,0-8-8H392a8,8,0,0,0-8,8V176H320V24a8,8,0,0,0-8-8H264a8,8,0,0,0-8,8V176H145.615l10.666-16H216a8,8,0,0,0,8-8V24a8,8,0,0,0-8-8H24a8,8,0,0,0-8,8V152a8,8,0,0,0,8,8H83.719l10.666,16H24a8,8,0,0,0-8,8v48a8,8,0,0,0,8,8H256v56H24a8,8,0,0,0-8,8v48a8,8,0,0,0,8,8H64v72H24a8,8,0,0,0-8,8v48a8,8,0,0,0,8,8H488a8,8,0,0,0,8-8V440a8,8,0,0,0-8-8H442.859C454.034,416.273,464,394.752,464,368a56,56,0,0,0-112,0c0,26.752,9.966,48.273,21.141,64H320V240H488a8,8,0,0,0,8-8V184a8,8,0,0,0-8-8H448V128ZM88,144H32V32H208V144H152a8,8,0,0,0-6.656,3.562L120,185.578,94.656,147.562A8,8,0,0,0,88,144ZM368,368a40,40,0,0,1,80,0c0,41.142-28.771,68.744-40.015,77.957C396.722,436.776,368,409.31,368,368Zm72-176h40v32H312a8,8,0,0,0-8,8V440a8,8,0,0,0,8,8h74.516a115.9,115.9,0,0,0,17.046,14.656,8,8,0,0,0,8.876,0A115.9,115.9,0,0,0,429.484,448H480v32H32V448H72a8,8,0,0,0,8-8V352a8,8,0,0,0-8-8H32V312H264a8,8,0,0,0,8-8V232a8,8,0,0,0-8-8H32V192h73.052l8.292,12.438a8,8,0,0,0,13.312,0L134.948,192H264a8,8,0,0,0,8-8V32h32V184a8,8,0,0,0,8,8h80a8,8,0,0,0,8-8V80h80v32H440a8,8,0,0,0-8,8v64A8,8,0,0,0,440,192Z"/><path d="M192,120a8,8,0,0,0-8-8h-8.581A56.111,56.111,0,0,0,128,64.581V56a8,8,0,0,0-16,0v8.581A56.111,56.111,0,0,0,64.581,112H56a8,8,0,0,0,0,16H184A8,8,0,0,0,192,120ZM80.805,112a40,40,0,0,1,78.39,0Z"/><path d="M432,368a24,24,0,1,0-24,24A24.028,24.028,0,0,0,432,368Zm-32,0a8,8,0,1,1,8,8A8.009,8.009,0,0,1,400,368Z"/></svg>
