<svg id="Filled" height="512" viewBox="0 0 512 512" width="512" xmlns="http://www.w3.org/2000/svg"><rect fill="#2b70a8" height="464" rx="32" width="256" x="128" y="24"/><path d="m384 56v32h-256v-32a32 32 0 0 1 32-32h192a32 32 0 0 1 32 32z" fill="#c2c5c6"/><circle cx="208" cy="56" fill="#7e8488" r="8"/><path d="m304 64h-56a8 8 0 0 1 0-16h56a8 8 0 0 1 0 16z" fill="#7e8488"/><path d="m384 408v48a32 32 0 0 1 -32 32h-192a32 32 0 0 1 -32-32v-48z" fill="#c2c5c6"/><circle cx="256" cy="448" fill="#7e8488" r="16"/><circle cx="256" cy="248" fill="#3ba673" r="96"/><path d="m245.1 343.38a95.157 95.157 0 0 1 -41.4-14.87l4.3-80.51h32z" fill="#e74444"/><path d="m288 280v-8l-16-8s6-80 48-80v96z" fill="#cfd1d3"/><path d="m322.46 317.26a95.706 95.706 0 0 1 -38.42 22.58l3.96-59.84h32z" fill="#e74444"/><path d="m256 216-16 32h-32l-16-32z" fill="#d9dbdd"/><path d="m160 496h192a40.045 40.045 0 0 0 40-40v-400a40.045 40.045 0 0 0 -40-40h-192a40.045 40.045 0 0 0 -40 40v400a40.045 40.045 0 0 0 40 40zm-24-440a24.028 24.028 0 0 1 24-24h192a24.028 24.028 0 0 1 24 24v24h-240zm0 40h240v304h-240zm0 320h240v40a24.028 24.028 0 0 1 -24 24h-192a24.028 24.028 0 0 1 -24-24z"/><circle cx="208" cy="56" r="8"/><path d="m304 48h-56a8 8 0 0 0 0 16h56a8 8 0 0 0 0-16z"/><path d="m256 472a24 24 0 1 0 -24-24 24.027 24.027 0 0 0 24 24zm0-32a8 8 0 1 1 -8 8 8.009 8.009 0 0 1 8-8z"/><path d="m256 144a104 104 0 1 0 104 104 104.118 104.118 0 0 0 -104-104zm88 104a87.494 87.494 0 0 1 -14.866 48.889l-1.134-17.15v-82.277a87.511 87.511 0 0 1 16 50.538zm-32 24h-16a8 8 0 0 0 -4.422-7.155l-11.03-5.515a175.783 175.783 0 0 1 7.366-33.019c6.148-18.091 14.226-29.1 24.086-32.853zm-16.511 16h17.022l1.714 25.923a88.281 88.281 0 0 1 -21.374 13.977zm-52.433-64-8 16h-22.112l-8-16zm-27.472 32h16.832l4.157 77.835a87.42 87.42 0 0 1 -24.629-9.681zm-47.584-8a87.511 87.511 0 0 1 16-50.538v18.538h.015a7.974 7.974 0 0 0 .83 3.578l15.055 30.108-3.373 63.114a87.785 87.785 0 0 1 -28.527-64.8zm84.708 87.932-4.608-86.246 15.053-30.108a7.974 7.974 0 0 0 .83-3.578h.017v-32a8 8 0 0 0 -16 0v24h-16v-24a8 8 0 0 0 -16 0v24h-16v-24a7.962 7.962 0 0 0 -.693-3.247 87.819 87.819 0 0 1 109.465-3.13c-38.71 11.647-44.5 82.5-44.75 85.778a8 8 0 0 0 4.4 7.754l11.578 5.789-3.56 56.656a87.906 87.906 0 0 1 -20.44 2.4c-1.1 0-2.2-.027-3.292-.068z"/></svg>