<svg id="Filled" height="512" viewBox="0 0 512 512" width="512" xmlns="http://www.w3.org/2000/svg"><circle cx="208" cy="200" fill="#ea8333" r="80"/><path d="m278.2 161.62c-4.81 4.06-18.93 14.38-38.2 14.38-24 0-40-16-40-16s-8 8-32 8c-11.21 0-20.68-5.24-27.58-10.82a80.011 80.011 0 0 1 137.78 4.44z" fill="#794832"/><circle cx="152" cy="280" fill="#d28f76" r="80"/><path d="m342.558 13.681h32v432h-32z" fill="#d28f76" transform="matrix(-.924 -.383 .383 -.924 601.928 579.093)"/><path d="m409.911 27.078h32v80h-32z" fill="#794832" transform="matrix(-.924 -.383 .383 -.924 793.731 292.039)"/><path d="m320 24h32v432h-32z" fill="#d28f76"/><path d="m320 24h32v80h-32z" fill="#794832"/><circle cx="296" cy="272" fill="#fae8d8" r="80"/><path d="m72 296v16l8 176h288l8-176v-16z" fill="#e74444"/><path d="m72 280h304a16 16 0 0 1 16 16v16a0 0 0 0 1 0 0h-336a0 0 0 0 1 0 0v-16a16 16 0 0 1 16-16z" fill="#2b70a8"/><path d="m384 368h-118.438a47.987 47.987 0 0 0 -83.124 0h-118.438v48h118.438a47.987 47.987 0 0 0 83.124 0h118.438z" fill="#2b70a8"/><path d="m369.33 240h-9.33a32 32 0 0 0 -32 32v56a16 16 0 0 1 -16 16 16 16 0 0 1 -16-16v-64a16 16 0 0 0 -16-16h-4.223a32 32 0 0 1 -28.622-17.689l-7.535-15.071a80.012 80.012 0 0 1 129.71 24.76z" fill="#794832"/><path d="m202.12 217.65c-4.89 10.72-13.18 22.35-26.12 22.35-24 0-40 8-40 24v104a16 16 0 0 1 -16 16 16 16 0 0 1 -16-16v-104.31s0-16.09-22.38-21.74a80 80 0 0 1 120.5-24.3z" fill="#794832"/><path d="m459.062 28.859-29.562-12.25a8 8 0 0 0 -10.453 4.329l-59.047 142.554v-139.492a8 8 0 0 0 -8-8h-32a8 8 0 0 0 -8 8v161.462a88.17 88.17 0 0 0 -16-1.462c-.489 0-.976.011-1.464.019a88 88 0 0 0 -174.511 14 88.2 88.2 0 0 0 -55.771 75.271 24.037 24.037 0 0 0 -16.254 22.71v16a8 8 0 0 0 8 8h8.356l1.821 40h-2.177a8 8 0 0 0 -8 8v48a8 8 0 0 0 8 8h5.085l2.923 64.363a8 8 0 0 0 7.992 7.637h288a8 8 0 0 0 7.992-7.637l2.923-64.363h5.085a8 8 0 0 0 8-8v-48a8 8 0 0 0 -8-8h-2.177l1.821-40h8.356a8 8 0 0 0 8-8v-16a24.038 24.038 0 0 0 -16.033-22.635c.007-.456.033-.909.033-1.365a87.618 87.618 0 0 0 -4.946-29.086l84.337-203.6a8 8 0 0 0 -4.329-10.455zm-123.062 243.141a24.027 24.027 0 0 1 24-24h3.872a71.659 71.659 0 0 1 4.128 24zm8-240v64h-16v-64zm-16 80h16v86.28a87.855 87.855 0 0 0 -16-8.256zm27.964 120.2a40.057 40.057 0 0 0 -35.964 39.8v56a8 8 0 0 1 -16 0v-64a24.028 24.028 0 0 0 -24-24h-4.223a23.868 23.868 0 0 1 -21.466-13.268l-4.818-9.634a71.877 71.877 0 0 1 106.471 15.1zm-67.964 71.8h-144v-16h144zm88 72v32h-110.44a8 8 0 0 0 -6.924 3.992 39.983 39.983 0 0 1 -69.272 0 8 8 0 0 0 -6.924-3.992h-110.44v-32h25.376a24 24 0 0 0 45.248 0h39.816a8 8 0 0 0 6.924-3.992 39.983 39.983 0 0 1 69.272 0 8 8 0 0 0 6.924 3.992zm-280-112.178v8.178h-15.545a71.411 71.411 0 0 1 5.3-20.184c9.377 4.331 10.177 10.937 10.245 12.006zm108.227-33.364a72.043 72.043 0 0 1 9 11.669 87.594 87.594 0 0 0 -5.227 29.873h-64v-8c0-14.441 22.378-16 32-16 8.06 0 18.921-3.3 28.227-17.542zm33.63-.855 2.143 4.286a39.782 39.782 0 0 0 35.777 22.111h4.223a8.009 8.009 0 0 1 8 8v8h-64a71.6 71.6 0 0 1 13.857-42.4zm-29.857-101.603a72.054 72.054 0 0 1 59.556 31.531 51.2 51.2 0 0 1 -27.556 8.469c-20.21 0-34.229-13.544-34.343-13.657a8 8 0 0 0 -11.314 0c-.056.056-7.2 5.657-26.343 5.657a32.37 32.37 0 0 1 -16.346-4.745 71.885 71.885 0 0 1 56.346-27.255zm-64.877 40.788a48.889 48.889 0 0 0 24.877 7.212c15.826 0 25.7-3.193 31.391-6.081 7.209 5.428 21.672 14.081 40.609 14.081a67.1 67.1 0 0 0 35.044-10.284 71.626 71.626 0 0 1 3.524 12.021 88.248 88.248 0 0 0 -57.353 39.935 88.056 88.056 0 0 0 -84.9-32.271 71.468 71.468 0 0 1 6.808-24.613zm8.877 39.212a71.954 71.954 0 0 1 39.855 12.056c-3.746 6.278-9.014 11.944-15.855 11.944-30.056 0-48 11.963-48 32v104a8 8 0 0 1 -16 0v-104.311c0-.785-.257-16.861-18.328-25.826a71.936 71.936 0 0 1 58.328-29.863zm-88 88a8.009 8.009 0 0 1 8-8h24v16h-32zm16.373 24h15.627v40h-13.806zm279.982 160h-272.71l-2.545-56h92.957a55.97 55.97 0 0 0 91.882 0h92.961zm5.451-120h-95.865a55.97 55.97 0 0 0 -91.882 0h-34.059v-40h144v8a24 24 0 0 0 48 0v-8h31.627zm18.194-56h-48v-16h40a8.009 8.009 0 0 1 8 8zm-25.845-94.237 42-101.4 14.788 6.126-45.31 109.373a88.682 88.682 0 0 0 -11.478-14.099zm62.906-110.057-14.788-6.125 24.5-59.128 14.779 6.125z"/></svg>