<svg id="Filled" height="512" viewBox="0 0 512 512" width="512" xmlns="http://www.w3.org/2000/svg"><path d="m40 200h448v256h-448z" fill="#efdece"/><path d="m152 200h96v256h-96z" fill="#d8c8b9"/><path d="m24 456h464v32h-464z" fill="#155384"/><path d="m24 344h96v144h-96z" fill="#93573d"/><path d="m448 120h-368l-40 80v32h448v-32z" fill="#155384"/><path d="m104 200h64a0 0 0 0 1 0 0v32a32 32 0 0 1 -32 32 32 32 0 0 1 -32-32v-32a0 0 0 0 1 0 0z" fill="#fdd14b"/><path d="m168 200h64a0 0 0 0 1 0 0v32a32 32 0 0 1 -32 32 32 32 0 0 1 -32-32v-32a0 0 0 0 1 0 0z" fill="#e74444"/><path d="m40 200h64a0 0 0 0 1 0 0v32a32 32 0 0 1 -32 32 32 32 0 0 1 -32-32v-32a0 0 0 0 1 0 0z" fill="#e74444"/><path d="m232 200h64a0 0 0 0 1 0 0v32a32 32 0 0 1 -32 32 32 32 0 0 1 -32-32v-32a0 0 0 0 1 0 0z" fill="#fdd14b"/><path d="m296 200h64a0 0 0 0 1 0 0v32a32 32 0 0 1 -32 32 32 32 0 0 1 -32-32v-32a0 0 0 0 1 0 0z" fill="#e74444"/><path d="m360 200h64a0 0 0 0 1 0 0v32a32 32 0 0 1 -32 32 32 32 0 0 1 -32-32v-32a0 0 0 0 1 0 0z" fill="#fdd14b"/><path d="m424 232v-32h64v32a32 32 0 0 1 -32 32 32 32 0 0 1 -32-32" fill="#e74444"/><path d="m376 24a48 48 0 0 0 -48 48c0 56 48 88 48 88s48-32 48-88a48 48 0 0 0 -48-48z" fill="#e74444"/><circle cx="376" cy="72" fill="#fdd14b" r="16"/><path d="m495.149 196.425h.006l-40-80a8 8 0 0 0 -7.155-4.425h-23.871a105.389 105.389 0 0 0 7.871-40 56 56 0 0 0 -112 0 105.389 105.389 0 0 0 7.871 40h-247.871a8 8 0 0 0 -7.155 4.422l-40 80h.006a7.949 7.949 0 0 0 -.851 3.578v136h-8a8 8 0 0 0 -8 8v144a8 8 0 0 0 8 8h464a8 8 0 0 0 8-8v-288a7.949 7.949 0 0 0 -.851-3.575zm-119.149-164.425a40.045 40.045 0 0 1 40 40c0 41.142-28.772 68.744-40.015 77.957-11.263-9.181-39.985-36.647-39.985-77.957a40.045 40.045 0 0 1 40-40zm-291.056 96h250.956a130.7 130.7 0 0 0 35.662 38.656 8 8 0 0 0 8.876 0 130.7 130.7 0 0 0 35.662-38.656h26.956l32 64h-422.112zm371.056 144a39.788 39.788 0 0 0 24-8.022v184.022h-16v-96a8 8 0 0 0 -16 0v48h-24a8 8 0 0 0 -8 8v40h-16v-64h16a8 8 0 0 0 0-16h-96a8 8 0 0 0 0 16h16v64h-16v-40a8 8 0 0 0 -8-8h-24v-48a8 8 0 0 0 -16 0v96h-16v-176.8a39.991 39.991 0 0 0 40-15.223 39.958 39.958 0 0 0 64 0 39.958 39.958 0 0 0 64 0 39.964 39.964 0 0 0 32 16.023zm-24 176v-32h16v32zm-48-64v64h-32v-64zm-96 32h16v32h-16zm-240-208h48v24a24 24 0 0 1 -48 0zm64 0h48v24a24 24 0 0 1 -48 0zm192 0h48v24a24 24 0 0 1 -48 0zm-64 24v-24h48v24a24 24 0 0 1 -48 0zm-64-24h48v24a24 24 0 0 1 -48 0zm-8 47.972a39.958 39.958 0 0 0 64 0 40.323 40.323 0 0 0 8 8.006v72.022h-80v-72.022a40.323 40.323 0 0 0 8-8.006zm-8 96.028h80v96h-80zm232-96a24.028 24.028 0 0 1 -24-24v-24h48v24a24.028 24.028 0 0 1 -24 24zm-344 7.978a39.94 39.94 0 0 0 56-8.006 39.991 39.991 0 0 0 40 15.228v176.8h-16v-104a8 8 0 0 0 -8-8h-72zm64 88.022v128h-80v-128zm16 128v-16h352v16zm328-224a24.028 24.028 0 0 1 -24-24v-24h48v24a24.028 24.028 0 0 1 -24 24z"/><path d="m56 384h32a8 8 0 0 0 0-16h-32a8 8 0 0 0 0 16z"/><path d="m56 416h32a8 8 0 0 0 0-16h-32a8 8 0 0 0 0 16z"/><path d="m56 448h32a8 8 0 0 0 0-16h-32a8 8 0 0 0 0 16z"/><path d="m400 72a24 24 0 1 0 -24 24 24.027 24.027 0 0 0 24-24zm-32 0a8 8 0 1 1 8 8 8.009 8.009 0 0 1 -8-8z"/></svg>