<svg id="Filled" height="512" viewBox="0 0 512 512" width="512" xmlns="http://www.w3.org/2000/svg"><path d="m488 88v224a32 32 0 0 1 -32 32h-240a32 32 0 0 1 -32-32v-64h-48l48-40v-120a32 32 0 0 1 32-32h240a32 32 0 0 1 32 32z" fill="#44c086"/><path d="m88 88h32a16 16 0 0 1 16 16v48a16 16 0 0 1 -16 16h-32a0 0 0 0 1 0 0v-80a0 0 0 0 1 0 0z" fill="#ce3536"/><path d="m88 312h32a16 16 0 0 1 16 16v48a16 16 0 0 1 -16 16h-32a0 0 0 0 1 0 0v-80a0 0 0 0 1 0 0z" fill="#ce3536"/><path d="m72 168v144h32v80h-16a64 64 0 0 1 -64-64v-176a64 64 0 0 1 64-64h16v80z" fill="#e74444"/><path d="m302.816 288h-13.632a16 16 0 0 1 -15.96-17.14l6.776-94.86h32l6.776 94.86a16 16 0 0 1 -15.96 17.14z" fill="#e74444"/><path d="m368 208v-8l-16-8s6-80 48-80v96z" fill="#d9dbdd"/><path d="m390.32 288h-12.64a16 16 0 0 1 -15.921-17.592l6.241-62.408h32l6.241 62.408a16 16 0 0 1 -15.921 17.592z" fill="#e74444"/><path d="m328 112a8 8 0 0 0 -8 8v24h-16v-24a8 8 0 0 0 -16 0v24h-16v-24a8 8 0 0 0 -16 0v24l24 32h32l24-32v-24a8 8 0 0 0 -8-8z" fill="#d9dbdd"/><path d="m456 48h-240a40.045 40.045 0 0 0 -40 40v116.253l-45.121 37.6a8 8 0 0 0 5.121 14.147h40v56a40.045 40.045 0 0 0 40 40h240a40.045 40.045 0 0 0 40-40v-224a40.045 40.045 0 0 0 -40-40zm24 264a24.028 24.028 0 0 1 -24 24h-240a24.028 24.028 0 0 1 -24-24v-64a8 8 0 0 0 -8-8h-25.9l31.024-25.854a8 8 0 0 0 2.876-6.146v-120a24.028 24.028 0 0 1 24-24h240a24.028 24.028 0 0 1 24 24z"/><path d="m80 399.545v16.455a40.045 40.045 0 0 0 40 40h8a24.027 24.027 0 0 1 24 24v8a8 8 0 0 0 16 0v-8a40.045 40.045 0 0 0 -40-40h-8a24.027 24.027 0 0 1 -24-24v-16h24a24.027 24.027 0 0 0 24-24v-48a24.027 24.027 0 0 0 -24-24h-40v-128h40a24.027 24.027 0 0 0 24-24v-48a24.027 24.027 0 0 0 -24-24h-32a72.081 72.081 0 0 0 -72 72v176a72.1 72.1 0 0 0 64 71.545zm48-71.545v48a8.009 8.009 0 0 1 -8 8h-8v-64h8a8.009 8.009 0 0 1 8 8zm0-224v48a8.009 8.009 0 0 1 -8 8h-8v-64h8a8.009 8.009 0 0 1 8 8zm-96 48a56.063 56.063 0 0 1 56-56h8v64h-24a8 8 0 0 0 -8 8v144a8 8 0 0 0 8 8h24v64h-8a56.063 56.063 0 0 1 -56-56z"/><path d="m408 207.6v-95.6a8 8 0 0 0 -8-8c-48.86 0-55.71 83.833-55.978 87.4a8 8 0 0 0 4.4 7.753l11.578 5.791v2.66l-6.2 62.008a24 24 0 0 0 23.88 26.388h12.64a24 24 0 0 0 23.88-26.388zm-40.086-53.29c6.148-18.09 14.226-29.095 24.086-32.852v78.542h-16a8 8 0 0 0 -4.422-7.155l-11.029-5.515a175.629 175.629 0 0 1 7.365-33.02zm28.338 123.058a7.91 7.91 0 0 1 -5.932 2.632h-12.64a8 8 0 0 1 -7.961-8.8l5.521-55.2h17.52l5.521 55.2a7.909 7.909 0 0 1 -2.029 6.168z"/><path d="m336 112a8 8 0 0 0 -16 0v24h-16v-24a8 8 0 0 0 -16 0v24h-16v-24a8 8 0 0 0 -16 0v32h.015a7.977 7.977 0 0 0 .83 3.578l15.019 30.039-6.619 92.673a24 24 0 0 0 23.939 25.71h13.632a24 24 0 0 0 23.939-25.71l-6.619-92.673 15.019-30.039a7.977 7.977 0 0 0 .83-3.578h.015zm-20.944 40-8 16h-22.112l-8-16zm-6.384 125.452a7.922 7.922 0 0 1 -5.856 2.548h-13.632a8 8 0 0 1 -7.98-8.57l6.245-87.43h17.1l6.245 87.43a7.925 7.925 0 0 1 -2.122 6.022z"/></svg>