<svg id="Filled" height="512" viewBox="0 0 512 512" width="512" xmlns="http://www.w3.org/2000/svg"><path d="m264 192h32v72h-32z" fill="#deb89a"/><path d="m376 124.892v-36.892a64 64 0 0 0 -64-64h-8a32 32 0 0 0 -32 32v48a96 96 0 0 0 96 96h8c48 0 48-40 48-40l-21.261-3.543a32 32 0 0 1 -26.739-31.565z" fill="#794832"/><path d="m440 376h-328l61.2-97.92a64.031 64.031 0 0 1 50.89-29.99c1.12-.06 2.25-.09 3.38-.09h36.53l16 16 16-16h34.57c1.75 0 3.48.07 5.2.23a63.933 63.933 0 0 1 50.58 32.39z" fill="#e74444"/><path d="m440 376h-328l61.2-97.92a64.022 64.022 0 0 1 50.41-29.96l.48-.03c1.12-.06 2.25-.09 3.38-.09h36.53l16 16 16-16h34.57c1.75 0 3.48.07 5.2.23l.67.06a63.945 63.945 0 0 1 49.91 32.33z" fill="#e74444"/><path d="m352 328h-72-72l-24 56v104h96 96v-104z" fill="#fc8d36"/><path d="m377.137 272.235-96.166 96.167-16.971 39.598 39.598-16.971 96.167-96.166z" fill="#c2c5c6"/><path d="m104 312h112v144h-112z" fill="#6a7073"/><path d="m72 328h32a0 0 0 0 1 0 0v32a16 16 0 0 1 -16 16 16 16 0 0 1 -16-16v-32a0 0 0 0 1 0 0z" fill="#deb89a" transform="matrix(-1 0 0 -1 176 704)"/><path d="m136 312h48a0 0 0 0 1 0 0v16a16 16 0 0 1 -16 16h-16a16 16 0 0 1 -16-16v-16a0 0 0 0 1 0 0z" fill="#c2c5c6"/><path d="m369.373 347.882 70.627 28.118-6.038 42.263a16 16 0 0 1 -15.839 13.737h-42.123l-29.255-61.49z" fill="#ce3536"/><path d="m324.368 263.632h32v136h-32z" fill="#6a7073" transform="matrix(.707 .707 -.707 .707 334.191 -143.543)"/><path d="m394.108 261.892a16 16 0 0 1 16 16v16a0 0 0 0 1 0 0h-32a0 0 0 0 1 0 0v-16a16 16 0 0 1 16-16z" fill="#c2c5c6" transform="matrix(.707 .707 -.707 .707 311.931 -197.283)"/><rect fill="#f5cbaa" height="48" rx="16" transform="matrix(.707 .707 -.707 .707 336 -139.176)" width="64" x="304" y="312"/><path d="m224 104h112a0 0 0 0 1 0 0v64a48 48 0 0 1 -48 48h-16a48 48 0 0 1 -48-48v-64a0 0 0 0 1 0 0z" fill="#f5cbaa"/><path d="m280 264-16 24-39.91-39.91c1.12-.06 2.25-.09 3.38-.09h36.53z" fill="#ce3536"/><path d="m335.77 248.23-39.77 39.77-16-24 16-16h34.57c1.75 0 3.48.07 5.2.23z" fill="#ce3536"/><path d="m344 112v48l-14.89-1.86h-.01c-38.07-9.73-57.1-54.14-57.1-54.14s-16 40-56 40v-32a48 48 0 0 1 48-48h32a48 48 0 0 1 48 48z" fill="#93573d"/><path d="m96 360h28a12 12 0 0 1 12 12v36a0 0 0 0 1 0 0h-40a24 24 0 0 1 -24-24 24 24 0 0 1 24-24z" fill="#f5cbaa" transform="matrix(-1 0 0 -1 208 768)"/><path d="m446.969 372.08-40.717-72.393 4.822-4.822a24 24 0 0 0 -31.791-35.843 72.406 72.406 0 0 0 -42.775-18.755c-1.915-.178-3.859-.265-5.942-.265h-26.566v-18.343a56.185 56.185 0 0 0 28.6-19.847 103.283 103.283 0 0 0 35.4 6.188h8c55.36 0 56-47.52 56-48a8 8 0 0 0 -6.686-7.892l-21.254-3.539a23.941 23.941 0 0 1 -20.06-23.679v-36.89a72.081 72.081 0 0 0 -72-72h-8a40.045 40.045 0 0 0 -40 40 56.063 56.063 0 0 0 -56 56v32a8 8 0 0 0 8 8v16a56.092 56.092 0 0 0 40 53.659v18.341h-26.24c-1.263 0-5.411.2-6.212.271a72.4 72.4 0 0 0 -54.842 33.569l-18.85 30.16h-45.856a8 8 0 0 0 -8 8v9.376a23.992 23.992 0 0 0 -32 22.624v52a20.023 20.023 0 0 0 20 20h12v40a8 8 0 0 0 8 8h72v24a8 8 0 0 0 8 8h192a8 8 0 0 0 8-8v-48h34.123a24.117 24.117 0 0 0 23.759-20.6l6.037-42.263a7.975 7.975 0 0 0 -.95-5.057zm-99.655-13.453a8.01 8.01 0 0 1 -11.314 0l-22.627-22.627a8 8 0 0 1 0-11.314l11.313-11.314a8.008 8.008 0 0 1 11.314 0l22.627 22.628a8 8 0 0 1 0 11.314zm-63.644 23.787 5.917 5.917-10.355 4.438zm19.929-2.7-11.314-11.314 15.431-15.43 11.313 11.313zm-79.599-59.714v-8a7.953 7.953 0 0 0 -1.467-4.607l11.432-38.115 24.378 24.379a8 8 0 0 0 5.657 2.343q.393 0 .788-.039a8 8 0 0 0 5.868-3.523l9.344-14.016 9.344 14.016a8 8 0 0 0 5.868 3.523q.395.039.788.039a8 8 0 0 0 5.657-2.343l24.378-24.378 7.812 26.045a23.95 23.95 0 0 0 -20.474 6.735l-11.314 11.313a24.021 24.021 0 0 0 -4.7 6.628zm36.686-64 9.02 9.02-6.95 10.423-19.443-19.443zm103.6 63.029-11.313-11.313 18.509-18.509 11.313 11.313zm2.621-47.875-1.081 1.081-17.077 17.077-9.79-32.645a56.478 56.478 0 0 1 28.878 13.557zm-67.593-15.154h17.372l-19.443 19.443-6.949-10.423zm75.321 75.306 19.872-19.872 27.426 48.766-44.978-17.91c.006-.211.016-.421.016-.633a23.906 23.906 0 0 0 -2.336-10.351zm19.473-61.413a8 8 0 0 1 5.657 13.656l-5.658 5.657-11.313-11.313 5.657-5.658a7.951 7.951 0 0 1 5.657-2.342zm-90.108-237.893h8a56.063 56.063 0 0 1 56 56v36.89a39.9 39.9 0 0 0 33.426 39.462l13.636 2.27c-2.342 9.389-10.52 25.378-39.062 25.378h-8a87.5 87.5 0 0 1 -27.548-4.4 55.729 55.729 0 0 0 3.548-19.6 8 8 0 0 0 8-8v-48a56.063 56.063 0 0 0 -56-56h-16a24.028 24.028 0 0 1 24-24zm-80 80a40.045 40.045 0 0 1 40-40h32a40.045 40.045 0 0 1 40 40v38.938l-5.4-.674c-33.39-8.872-51.078-49.019-51.248-49.415a8 8 0 0 0 -7.352-4.849h-.1a8 8 0 0 0 -7.331 5.028c-.128.321-12.148 29.53-40.572 34.313zm8 56v-17.974c19.759-5.04 32.579-18.766 39.849-29.394 9.255 15.047 27.5 38.16 55.27 45.259a8.426 8.426 0 0 0 .881.161v1.948a40.045 40.045 0 0 1 -40 40h-16a40.045 40.045 0 0 1 -40-40zm56 56v20.686l-8 8-8-8v-20.686zm-105.727 58.322a56.339 56.339 0 0 1 38.759-25.622l-14.185 47.3h-38.123zm-38.273 37.678h32v8a8.009 8.009 0 0 1 -8 8h-16a8.009 8.009 0 0 1 -8-8zm-56 16a8.009 8.009 0 0 1 8 8v8h-16v-8a8.009 8.009 0 0 1 8-8zm-8 60v-28h32a16 16 0 0 1 0 32h-28a4 4 0 0 1 -4-4zm32 20a32 32 0 0 0 0-64v-32h16v8a24.027 24.027 0 0 0 24 24h16a24.027 24.027 0 0 0 24-24v-8h16v128h-96zm80 64v-16h24a8 8 0 0 0 8-8v-120h71.7a23.714 23.714 0 0 0 1.665 4.694l-22.051 22.051a8 8 0 0 0 -1.7 2.506l-16.971 39.6a8 8 0 0 0 10.5 10.5l39.6-16.971a8.036 8.036 0 0 0 2.5-1.7l22.078-22.079a24 24 0 0 0 9.6 2.317l27.079 56.888v46.194zm234.043-62.868a8.04 8.04 0 0 1 -7.92 6.868h-37.07l-24.753-52.038a23.9 23.9 0 0 0 2.332-2.021l11.314-11.313c.45-.45.874-.919 1.284-1.4l59.96 23.872z"/></svg>