<svg id="Filled" height="512" viewBox="0 0 512 512" width="512" xmlns="http://www.w3.org/2000/svg"><path d="m256 24-232 400s72 64 232 64 232-64 232-64z" fill="#fdd14b"/><path d="m488 424s-72 64-232 64-232-64-232-64l41.93-72.29c27.98 21.19 89.53 56.29 190.07 56.29s162.09-35.1 190.07-56.29z" fill="#ab6647"/><g fill="#e74444"><circle cx="304" cy="120" r="40"/><circle cx="312" cy="280" r="40"/><circle cx="168" cy="376" r="40"/><circle cx="168" cy="224" r="40"/></g><path d="m240 168v32s-24 8-24 32 24 32 24 32v32s-56-8-56-64 56-64 56-64z" fill="#3ba673"/><path d="m320 288h32s8 24 32 24 32-24 32-24h32s-8 56-64 56-64-56-64-56z" fill="#3ba673"/><path d="m256 352s-3.882 30.059 18.745 52.686 45.255 11.314 45.255 11.314 11.314-22.627-11.314-45.255-52.686-18.745-52.686-18.745z" fill="#3ba673"/><circle cx="232" cy="136" r="8"/><circle cx="304" cy="208" r="8"/><circle cx="128" cy="312" r="8"/><circle cx="232" cy="328" r="8"/><path d="m440.1 325.475c1.331-1.733 2.54-3.46 3.625-5.149a86.107 86.107 0 0 0 12.19-31.2 8 8 0 0 0 -7.915-9.126h-32a7.977 7.977 0 0 0 -2.1.3l-74.313-128.125a47.975 47.975 0 0 0 -45.846-79.06l-30.821-53.129a8 8 0 0 0 -13.84 0l-91.1 157.075a47.986 47.986 0 0 0 -35.7 61.546l-105.2 181.379a8 8 0 0 0 1.605 9.993c.775.689 19.436 17.068 58.211 33.394 35.35 14.884 95.118 32.627 179.104 32.627s143.754-17.743 179.1-32.627c38.775-16.326 57.436-32.7 58.211-33.394a8 8 0 0 0 1.605-9.993zm-2.33-29.475c-4.707 14.25-18.142 40-53.77 40s-49.063-25.75-53.77-40h16.581c4.419 8.54 15.425 24 37.189 24s32.77-15.46 37.189-24zm-117.77-16a8 8 0 0 0 -7.919 9.131 83.974 83.974 0 0 0 7.111 22.039 31.994 31.994 0 1 1 24.808-31.17zm16-160a32 32 0 1 1 -32-32 32.036 32.036 0 0 1 32 32zm-168 72a31.832 31.832 0 0 1 16.539 4.617c-5.094 9.232-8.539 20.843-8.539 35.383a78.158 78.158 0 0 0 3.006 22.043 32 32 0 1 1 -11.006-62.043zm64 77.189v16.581c-14.25-4.707-40-18.142-40-53.77s25.75-49.063 40-53.77v16.581c-8.54 4.419-24 15.425-24 37.189s15.46 32.77 24 37.189zm-64 2.811a47.962 47.962 0 0 0 17.316-3.235 68.615 68.615 0 0 0 22.358 22.964 86.107 86.107 0 0 0 31.195 12.19 7.833 7.833 0 0 0 1.131.081 8 8 0 0 0 8-8v-32a8 8 0 0 0 -5.47-7.589c-.185-.062-18.53-6.386-18.53-24.411 0-17.789 17.814-24.163 18.53-24.411a8 8 0 0 0 5.47-7.589v-32a8 8 0 0 0 -9.131-7.919 86.107 86.107 0 0 0 -31.195 12.19 72.057 72.057 0 0 0 -13.708 11.372 47.674 47.674 0 0 0 -17.333-6.859l79.367-136.84 22.768 39.247a47.985 47.985 0 0 0 48.125 82.989l76.555 131.994c-3.804 4.812-10.024 9.826-19.448 9.826-17.069 0-23.624-16.392-24.346-18.352a48.074 48.074 0 1 0 -31.882 39.664c10.036 13.144 27.375 26.688 56.228 26.688 19.806 0 34.182-6.386 44.5-14.64l7.037 12.134c-21.648 15.272-56.075 33.543-105.526 43.425-1.657-8.5-6.038-18.2-15.669-27.831-25.12-25.12-57.982-21.2-59.368-21.022a8 8 0 0 0 -6.909 6.909c-.155 1.2-3.1 26.041 12.457 49-1.505.016-3.012.029-4.523.029a395.042 395.042 0 0 1 -45.084-2.539 47.991 47.991 0 1 0 -90.858-23.748 248.514 248.514 0 0 1 -43.591-24.228l54.852-94.572a47.909 47.909 0 0 0 36.682 17.083zm95.825 87.786c9.113.38 25.7 3.111 39.2 16.616 14.112 14.112 12.336 27.8 10.749 33.393-5.585 1.595-19.234 3.377-33.377-10.765-13.397-13.401-16.158-30.091-16.572-39.244zm-95.825 48.214a32 32 0 1 1 32-32 32.036 32.036 0 0 1 -32 32zm260.035 40.988c-33.875 14.147-91.22 31.012-172.035 31.012s-138.16-16.865-172.035-31.012c-25.494-10.648-41.88-21.392-49.551-27l34-58.616a270.3 270.3 0 0 0 54.4 28.8 47.948 47.948 0 0 0 76.739 19.95 405.258 405.258 0 0 0 56.447 3.878c6.395 0 12.747-.149 18.948-.426 11.17 8.842 22.086 11.288 30.742 11.288a42.773 42.773 0 0 0 17.888-3.707 8 8 0 0 0 3.577-3.577 38.937 38.937 0 0 0 3.094-10.394c52.776-10.1 89.833-29.429 113.347-45.8l33.99 58.6c-7.678 5.616-24.061 16.358-49.551 27.004z"/></svg>