<svg id="Filled" height="512" viewBox="0 0 512 512" width="512" xmlns="http://www.w3.org/2000/svg"><path d="m224 24h240v400h-240z" fill="#155384"/><path d="m48 88h240v400h-240z" fill="#2b70a8"/><path d="m288 88h-64v-64z" fill="#11456e"/><path d="m104 184h32a0 0 0 0 1 0 0v48a16 16 0 0 1 -16 16 16 16 0 0 1 -16-16v-48a0 0 0 0 1 0 0z" fill="#ce3536"/><path d="m136 152v48h-32a16 16 0 0 1 -16-16v-16a16 16 0 0 1 16-16z" fill="#e74444"/><path d="m200 136v80l-64-16v-48z" fill="#e74444"/><g fill="#fdd14b"><path d="m88 296h32v32h-32z"/><path d="m88 360h32v32h-32z"/><path d="m88 424h32v32h-32z"/><path d="m48 88h56l-56 64z"/></g><path d="m408 264a48 48 0 0 0 -96 0z" fill="#d9dbdd"/><path d="m464 16h-240a8 8 0 0 0 -8 8v56h-168a8 8 0 0 0 -8 8v400a8 8 0 0 0 8 8h240a8 8 0 0 0 8-8v-56h168a8 8 0 0 0 8-8v-400a8 8 0 0 0 -8-8zm-232 27.314 36.686 36.686h-36.686zm-145.63 52.686-30.37 34.708v-34.708zm193.63 384h-224v-324.994l51.63-59.006h172.37zm176-64h-160v-32h72a8 8 0 0 0 0-16h-72v-16h104a8 8 0 0 0 0-16h-104v-64h128a8 8 0 0 0 0-16h-8.581a56.112 56.112 0 0 0 -47.419-47.419v-8.581a8 8 0 0 0 -16 0v8.581a56.112 56.112 0 0 0 -47.419 47.419h-8.581v-96h72a8 8 0 0 0 0-16h-72v-16h104a8 8 0 0 0 0-16h-104v-24a7.971 7.971 0 0 0 -2.343-5.656l-50.343-50.344h212.686zm-96-192a40.067 40.067 0 0 1 39.2 32h-78.39a40.067 40.067 0 0 1 39.19-32z"/><path d="m432 368h-32a8 8 0 0 0 0 16h32a8 8 0 0 0 0-16z"/><path d="m432 304h-64a8 8 0 0 0 0 16h64a8 8 0 0 0 0-16z"/><circle cx="432" cy="344" r="8"/><path d="m336 304h-16a8 8 0 0 0 0 16h16a8 8 0 0 0 0-16z"/><path d="m248 168h-16a8 8 0 0 0 0 16h16a8 8 0 0 0 0-16z"/><path d="m244.422 223.155a8 8 0 1 0 7.156-14.31l-16-8a8 8 0 1 0 -7.156 14.31z"/><path d="m120 288h-32a8 8 0 0 0 -8 8v32a8 8 0 0 0 8 8h32a8 8 0 0 0 8-8v-32a8 8 0 0 0 -8-8zm-8 32h-16v-16h16z"/><path d="m120 352h-32a8 8 0 0 0 -8 8v32a8 8 0 0 0 8 8h32a8 8 0 0 0 8-8v-32a8 8 0 0 0 -8-8zm-8 32h-16v-16h16z"/><path d="m248 288h-96a8 8 0 0 0 0 16h96a8 8 0 0 0 0-16z"/><path d="m152 336h16a8 8 0 0 0 0-16h-16a8 8 0 0 0 0 16z"/><path d="m248 352h-96a8 8 0 0 0 0 16h96a8 8 0 0 0 0-16z"/><path d="m152 400h16a8 8 0 0 0 0-16h-16a8 8 0 0 0 0 16z"/><path d="m120 416h-32a8 8 0 0 0 -8 8v32a8 8 0 0 0 8 8h32a8 8 0 0 0 8-8v-32a8 8 0 0 0 -8-8zm-8 32h-16v-16h16z"/><path d="m248 416h-96a8 8 0 0 0 0 16h96a8 8 0 0 0 0-16z"/><path d="m168 448h-16a8 8 0 0 0 0 16h16a8 8 0 0 0 0-16z"/><path d="m432 144h-32a8 8 0 0 0 0 16h32a8 8 0 0 0 0-16z"/><path d="m368 96h64a8 8 0 0 0 0-16h-64a8 8 0 0 0 0 16z"/><circle cx="432" cy="120" r="8"/><path d="m320 96h16a8 8 0 0 0 0-16h-16a8 8 0 0 0 0 16z"/><path d="m232.006 152a8 8 0 0 1 -3.584-15.157l16-8a8 8 0 1 1 7.156 14.31l-16 8a7.973 7.973 0 0 1 -3.572.847z"/><path d="m204.923 129.694a8 8 0 0 0 -6.863-1.455l-63.045 15.761h-31.015a24.027 24.027 0 0 0 -24 24v16a24.039 24.039 0 0 0 16 22.624v25.376a24 24 0 0 0 48 0v-21.754l54.06 13.515a8 8 0 0 0 9.94-7.761v-80a8 8 0 0 0 -3.077-6.306zm-108.923 38.306a8.009 8.009 0 0 1 8-8h24v32h-24a8.009 8.009 0 0 1 -8-8zm24 72a8.009 8.009 0 0 1 -8-8v-24h16v24a8.009 8.009 0 0 1 -8 8zm72-34.246-48-12v-35.508l48-12z"/></svg>