<svg id="Filled" height="512" viewBox="0 0 512 512" width="512" xmlns="http://www.w3.org/2000/svg"><path d="m240 184h32v48h-32z" fill="#c2c5c6"/><path d="m232 216h48a160 160 0 0 1 160 160v24a0 0 0 0 1 0 0h-368a0 0 0 0 1 0 0v-24a160 160 0 0 1 160-160z" fill="#d9dbdd"/><path d="m32 392h448a0 0 0 0 1 0 0v16a16 16 0 0 1 -16 16h-416a16 16 0 0 1 -16-16v-16a0 0 0 0 1 0 0z" fill="#c2c5c6"/><g fill="#fdd14b"><circle cx="80" cy="96" r="56"/><circle cx="432" cy="96" r="56"/><circle cx="256" cy="96" r="56"/></g><path d="m80 160a64 64 0 1 0 -64-64 64.072 64.072 0 0 0 64 64zm0-112a48 48 0 1 1 -48 48 48.054 48.054 0 0 1 48-48z"/><circle cx="64" cy="80" r="8"/><circle cx="96" cy="80" r="8"/><path d="m80 128c11 0 20.6-9.285 21.657-10.343a8 8 0 0 0 -11.292-11.336c-2.327 2.29-7.231 5.679-10.365 5.679s-8.033-3.385-10.362-5.676a8 8 0 0 0 -11.3 11.333c1.062 1.058 10.662 10.343 21.662 10.343z"/><path d="m432 32a64 64 0 1 0 64 64 64.072 64.072 0 0 0 -64-64zm0 112a48 48 0 1 1 48-48 48.054 48.054 0 0 1 -48 48z"/><circle cx="416" cy="80" r="8"/><circle cx="448" cy="80" r="8"/><path d="m432 96c-11 0-20.6 9.285-21.657 10.343a8 8 0 0 0 11.292 11.336c2.327-2.29 7.231-5.679 10.365-5.679s8.038 3.389 10.343 5.657a8 8 0 0 0 11.314-11.314c-1.057-1.058-10.657-10.343-21.657-10.343z"/><path d="m320 96a64 64 0 1 0 -64 64 64.072 64.072 0 0 0 64-64zm-112 0a48 48 0 1 1 48 48 48.054 48.054 0 0 1 -48-48z"/><circle cx="240" cy="80" r="8"/><circle cx="272" cy="80" r="8"/><path d="m280 112a8 8 0 0 0 -8-8h-32a8 8 0 0 0 0 16h32a8 8 0 0 0 8-8z"/><path d="m480 384h-32v-8c0-92.636-75.364-168-168-168v-16h8a8 8 0 0 0 0-16h-64a8 8 0 0 0 0 16h8v16c-92.636 0-168 75.364-168 168v8h-32a8 8 0 0 0 -8 8v16a24.028 24.028 0 0 0 24 24h416a24.028 24.028 0 0 0 24-24v-16a8 8 0 0 0 -8-8zm-232-192h16v16h-16zm-168 184c0-83.813 68.187-152 152-152h48c83.813 0 152 68.187 152 152v8h-352zm392 32a8.009 8.009 0 0 1 -8 8h-416a8.009 8.009 0 0 1 -8-8v-8h432z"/></svg>