<svg id="Filled" height="512" viewBox="0 0 512 512" width="512" xmlns="http://www.w3.org/2000/svg"><path d="m224 216v-48h-32v48l-79.2 18.276a32 32 0 0 0 -24.8 31.18v222.544h240v-222.544a32 32 0 0 0 -24.8-31.18z" fill="#f5cbaa"/><path d="m152 72h112a0 0 0 0 1 0 0v64a48 48 0 0 1 -48 48h-16a48 48 0 0 1 -48-48v-64a0 0 0 0 1 0 0z" fill="#f5cbaa"/><path d="m160 120c24-8 32-48 32-48 16 32 48 56 64 56v67.939a32 32 0 0 0 32-32v-75.939a64 64 0 0 0 -64-64h-32a64 64 0 0 0 -64 64v75.939a32 32 0 0 0 32 32z" fill="#794832"/><path d="m280 228.93v259.07h-144v-259.07l32-7.39v26.46a16 16 0 0 0 16 16h48a16 16 0 0 0 16-16v-26.46z" fill="#155384"/><circle cx="376" cy="304" fill="#44c086" r="64"/><path d="m168 328 16 80v16h48v-16l16-80z" fill="#a4d4f4"/><path d="m88 408h240v80h-240z" fill="#ab6647"/><path d="m64 400h32a0 0 0 0 1 0 0v24a16 16 0 0 1 -16 16 16 16 0 0 1 -16-16v-24a0 0 0 0 1 0 0z" fill="#deb89a" transform="matrix(-1 0 0 -1 160 840)"/><path d="m336 400a16 16 0 0 1 16 16v24a0 0 0 0 1 0 0h-32a0 0 0 0 1 0 0v-24a16 16 0 0 1 16-16z" fill="#deb89a"/><path d="m80 440h32a16 16 0 0 1 16 16v32a0 0 0 0 1 0 0h-48a16 16 0 0 1 -16-16v-16a16 16 0 0 1 16-16z" fill="#f5cbaa" transform="matrix(-1 0 0 -1 192 928)"/><path d="m304 440h48a0 0 0 0 1 0 0v32a16 16 0 0 1 -16 16h-32a16 16 0 0 1 -16-16v-16a16 16 0 0 1 16-16z" fill="#f5cbaa"/><path d="m232 408 9.6-48h-67.2l9.6 48z" fill="#93573d"/><path d="m376 232a71.624 71.624 0 0 0 -44.364 15.354 40.1 40.1 0 0 0 -26.636-20.869l-73-16.849v-19.983a55.8 55.8 0 0 0 16-7.693v13.979a8 8 0 0 0 8 8 40.045 40.045 0 0 0 40-40v-75.939a72.081 72.081 0 0 0 -72-72h-32a72.081 72.081 0 0 0 -72 72v75.939a40.045 40.045 0 0 0 40 40 8 8 0 0 0 8-8v-13.979a55.8 55.8 0 0 0 16 7.693v19.983l-73 16.849a39.818 39.818 0 0 0 -31 38.975v126.54a24.027 24.027 0 0 0 -24 24v56a24.028 24.028 0 0 0 24 24h256a24.028 24.028 0 0 0 24-24v-56a24.027 24.027 0 0 0 -24-24v-28.167a71.988 71.988 0 1 0 40-131.833zm-88 6.982 13.4 3.093a24.077 24.077 0 0 1 17.884 17.65 71.787 71.787 0 0 0 .716 89.46v48.946a23.883 23.883 0 0 0 -1.869 1.869h-30.131zm-56.158 129.018-6.4 32h-34.883l-6.4-32zm-15.842-16v-16h22.242l-3.2 16zm-16 0h-19.042l-3.2-16h22.242zm112 64v16h-72a8 8 0 0 0 -7.155 4.422l-5.789 11.578h-38.112l-5.789-11.578a8 8 0 0 0 -7.155-4.422h-72v-16zm-154.53-303.59a8 8 0 0 0 -5.47 7.59v66.568a24.041 24.041 0 0 1 -16-22.629v-75.939a56.063 56.063 0 0 1 56-56h32a56.063 56.063 0 0 1 56 56v75.939a24.041 24.041 0 0 1 -16 22.629v-58.568a8 8 0 0 0 -8-8c-10.949 0-40.847-19.582-56.845-51.578a8 8 0 0 0 -7.155-4.422 8.139 8.139 0 0 0 -1.065.07 8 8 0 0 0 -6.783 6.361c-1.968 9.86-10.607 36.621-26.682 41.979zm10.53 47.59v-34.746c9.711-5.109 17.861-14.816 24.283-28.943.751-1.652 1.439-3.283 2.066-4.865a138.79 138.79 0 0 0 24.529 26.7c10.249 8.541 20.45 14.339 29.122 16.685v25.169a39.932 39.932 0 0 1 -32 16h-16a39.932 39.932 0 0 1 -32-16zm8 67.908 17.8-4.108a8 8 0 0 0 6.2-7.8v-24h16v24a8 8 0 0 0 6.2 7.795l17.8 4.105v20.1a8.009 8.009 0 0 1 -8 8h-48a8.009 8.009 0 0 1 -8-8zm-32 7.386 16-3.693v16.399a24.027 24.027 0 0 0 24 24h48a24.027 24.027 0 0 0 24-24v-16.4l16 3.693v164.707h-30.241l14.086-70.431a8 8 0 0 0 -7.845-9.569h-32v-16h24a8 8 0 0 0 0-16h-32a8 8 0 0 0 -8 8v24h-32a8 8 0 0 0 -7.845 9.569l14.086 70.431h-30.241zm-48 30.166a23.891 23.891 0 0 1 18.6-23.385l13.4-3.093v161.018h-30.131a23.883 23.883 0 0 0 -1.869-1.869zm-24 150.54a8 8 0 0 1 16 0v16h-16zm48 56a8.009 8.009 0 0 1 -8 8h-32a8.009 8.009 0 0 1 -8-8v-24h40a8.009 8.009 0 0 1 8 8zm161.376 8h-146.752a23.889 23.889 0 0 0 1.376-8v-16a23.889 23.889 0 0 0 -1.376-8h36.432l5.789 11.578a8 8 0 0 0 7.155 4.422h48a8 8 0 0 0 7.155-4.422l5.789-11.578h36.432a23.889 23.889 0 0 0 -1.376 8v16a23.889 23.889 0 0 0 1.376 8zm62.624-8a8.009 8.009 0 0 1 -8 8h-32a8.009 8.009 0 0 1 -8-8v-16a8.009 8.009 0 0 1 8-8h40zm0-56v16h-16v-16a8 8 0 0 1 16 0zm32-56a56 56 0 1 1 56-56 56.063 56.063 0 0 1 -56 56z"/><path d="m394.343 282.343-34.343 34.344-10.343-10.344a8 8 0 0 0 -11.314 11.314l16 16a8 8 0 0 0 11.314 0l40-40a8 8 0 0 0 -11.314-11.314z"/></svg>