<svg id="Filled" height="512" viewBox="0 0 512 512" width="512" xmlns="http://www.w3.org/2000/svg"><path d="m360.569 248.235h48a0 0 0 0 1 0 0v248.665a24 24 0 0 1 -24 24 24 24 0 0 1 -24-24v-248.665a0 0 0 0 1 0 0z" fill="#e74444" transform="matrix(.707 -.707 .707 .707 -159.294 384.569)"/><path d="m294.627 261.49h48v114.274h-48z" fill="#d9dbdd" transform="matrix(.707 -.707 .707 .707 -131.98 318.627)"/><circle cx="200" cy="200" fill="#e74444" r="176"/><circle cx="200" cy="200" fill="#ce3536" r="136"/><path d="m225.184 288h-50.368a16 16 0 0 1 -15.952-14.773l-6.864-97.227h96l-6.864 97.227a16 16 0 0 1 -15.952 14.773z" fill="#d9dbdd"/><path d="m248 176-2.26 32h-91.48l-2.26-32z" fill="#d9dbdd"/><path d="m152 144h96a16 16 0 0 1 16 16v16a0 0 0 0 1 0 0h-128a0 0 0 0 1 0 0v-16a16 16 0 0 1 16-16z" fill="#93573d"/><path d="m245.74 208-4.6 65.23a16.008 16.008 0 0 1 -15.96 14.77h-50.36a16.008 16.008 0 0 1 -15.96-14.77l-4.6-65.23z" fill="#fae8d8"/><path d="m200 384a182.965 182.965 0 0 0 105.445-33.3l135.928 135.928a32 32 0 0 0 45.255-45.256l-135.928-135.927a182.965 182.965 0 0 0 33.3-105.445c0-101.458-82.542-184-184-184s-184 82.542-184 184 82.542 184 184 184zm275.313 68.686a16 16 0 1 1 -22.626 22.627l-99.314-99.313 22.627-22.627zm-110.627-110.627-22.627 22.627-23.823-23.823a185.572 185.572 0 0 0 22.627-22.627zm-164.686-310.059c92.636 0 168 75.364 168 168s-75.364 168-168 168-168-75.364-168-168 75.364-168 168-168z"/><path d="m200 344c79.4 0 144-64.6 144-144s-64.6-144-144-144-144 64.6-144 144 64.6 144 144 144zm0-272a128 128 0 1 1 -128 128 128.145 128.145 0 0 1 128-128z"/><path d="m136 184h8.545l6.342 89.841a24.111 24.111 0 0 0 23.929 22.159h50.368a24.121 24.121 0 0 0 23.932-22.209l6.339-89.791h8.545a8 8 0 0 0 8-8v-16a24.027 24.027 0 0 0 -24-24h-40v-24a8 8 0 0 0 -16 0v24h-40a24.027 24.027 0 0 0 -24 24v16a8 8 0 0 0 8 8zm24.585 0h31.415v16h-30.286zm47.415-32h40a8.009 8.009 0 0 1 8 8v8h-48zm0 32h31.415l-1.129 16h-30.286zm-8 80a8 8 0 0 0 8-8v-40h29.156l-4 56.614a8.037 8.037 0 0 1 -7.972 7.386h-50.368a8.025 8.025 0 0 1 -7.972-7.336l-4-56.664h29.156v40a8 8 0 0 0 8 8zm-56-104a8.009 8.009 0 0 1 8-8h40v16h-48z"/></svg>