<svg id="Filled" height="512" viewBox="0 0 512 512" width="512" xmlns="http://www.w3.org/2000/svg"><path d="m360.569 248.235h48a0 0 0 0 1 0 0v248.665a24 24 0 0 1 -24 24 24 24 0 0 1 -24-24v-248.665a0 0 0 0 1 0 0z" fill="#e74444" transform="matrix(.707 -.707 .707 .707 -159.294 384.569)"/><path d="m294.627 261.49h48v114.274h-48z" fill="#d9dbdd" transform="matrix(.707 -.707 .707 .707 -131.98 318.627)"/><circle cx="200" cy="200" fill="#e74444" r="176"/><circle cx="200" cy="200" fill="#ce3536" r="136"/><path d="m200 160a80 80 0 0 1 80 80 0 0 0 0 1 0 0h-160a0 0 0 0 1 0 0 80 80 0 0 1 80-80z" fill="#d9dbdd"/><path d="m350.7 305.446a182.962 182.962 0 0 0 33.3-105.446c0-101.458-82.542-184-184-184s-184 82.542-184 184 82.542 184 184 184a182.962 182.962 0 0 0 105.446-33.3l135.927 135.927a32 32 0 1 0 45.254-45.254zm-318.7-105.446c0-92.636 75.364-168 168-168s168 75.364 168 168-75.364 168-168 168-168-75.364-168-168zm308.863 118.236 23.824 23.823-22.628 22.628-23.823-23.824a185.572 185.572 0 0 0 22.627-22.627zm134.451 157.078a16 16 0 0 1 -22.628 0l-99.313-99.314 22.627-22.627 99.314 99.313a16 16 0 0 1 0 22.628z"/><path d="m200 56c-79.4 0-144 64.6-144 144s64.6 144 144 144 144-64.6 144-144-64.6-144-144-144zm0 272a128 128 0 1 1 128-128 128.144 128.144 0 0 1 -128 128z"/><path d="m296 232h-8.367a88.145 88.145 0 0 0 -79.633-79.633v-16.367a8 8 0 0 0 0-16h-16a8 8 0 0 0 0 16v16.367a88.145 88.145 0 0 0 -79.633 79.633h-8.367a8 8 0 0 0 0 16h192a8 8 0 0 0 0-16zm-96-64a72.1 72.1 0 0 1 71.545 64h-143.09a72.1 72.1 0 0 1 71.545-64z"/></svg>