<svg id="Filled" height="512" viewBox="0 0 512 512" width="512" xmlns="http://www.w3.org/2000/svg"><path d="m184 448h304l-16-72v-216h-312v216z" fill="#93573d"/><path d="m360 448h-336l16-72v-216h336v216z" fill="#ab6647"/><path d="m360 448 64-56 64 56z" fill="#794832"/><circle cx="208" cy="304" fill="#3ba673" r="96"/><path d="m197.1 399.38a95.157 95.157 0 0 1 -41.4-14.87l4.3-80.51h32z" fill="#e74444"/><path d="m240 336v-8l-16-8s6-80 48-80v96z" fill="#d9dbdd"/><path d="m274.46 373.26a95.706 95.706 0 0 1 -38.42 22.58l3.96-59.84h32z" fill="#e74444"/><path d="m208 272-16 32h-32l-16-32z" fill="#d9dbdd"/><path d="m480 375.122v-215.122a8 8 0 0 0 -8-8h-136v-56a56.063 56.063 0 0 0 -56-56h-80a56.063 56.063 0 0 0 -56 56v56h-104a8 8 0 0 0 -8 8v215.122l-15.81 71.143a8 8 0 0 0 7.81 9.735h464a8 8 0 0 0 7.81-9.735zm-200-319.122a40.045 40.045 0 0 1 40 40v56h-32v-56a55.82 55.82 0 0 0 -16.862-40zm-40 .8a40.067 40.067 0 0 1 32 39.2v56h-64v-56a40.067 40.067 0 0 1 32-39.195zm-80 39.2a40.045 40.045 0 0 1 40-40h8.862a55.82 55.82 0 0 0 -16.862 40v56h-32zm208 279.122-14.417 64.878h-319.61l13.837-62.265a8.027 8.027 0 0 0 .19-1.735v-208h96v24a8 8 0 0 0 16 0v-24h112v24a8 8 0 0 0 16 0v-24h80zm15.81 2.613a8.027 8.027 0 0 0 .19-1.735v-208h32v220.37l-42.894 37.53zm-2.518 62.265 42.708-37.37 42.708 37.37zm50.708-51.63v-220.37h32v208a8.027 8.027 0 0 0 .19 1.735l10.7 48.167z"/><path d="m208 200a104 104 0 1 0 104 104 104.118 104.118 0 0 0 -104-104zm88 104a87.494 87.494 0 0 1 -14.866 48.889l-1.134-17.15v-82.277a87.511 87.511 0 0 1 16 50.538zm-32 24h-16a8 8 0 0 0 -4.422-7.155l-11.03-5.515a175.783 175.783 0 0 1 7.366-33.019c6.148-18.091 14.226-29.1 24.086-32.853zm-16.511 16h17.022l1.714 25.923a88.281 88.281 0 0 1 -21.374 13.977zm-52.433-64-8 16h-22.112l-8-16zm-27.472 32h16.832l4.157 77.835a87.42 87.42 0 0 1 -24.629-9.681zm-47.584-8a87.511 87.511 0 0 1 16-50.538v18.538h.015a7.974 7.974 0 0 0 .83 3.578l15.055 30.108-3.373 63.114a87.785 87.785 0 0 1 -28.527-64.8zm84.708 87.932-4.608-86.246 15.053-30.108a7.974 7.974 0 0 0 .83-3.578h.017v-32a8 8 0 0 0 -16 0v24h-16v-24a8 8 0 0 0 -16 0v24h-16v-24a7.962 7.962 0 0 0 -.693-3.247 87.819 87.819 0 0 1 109.465-3.13c-38.71 11.647-44.5 82.5-44.75 85.778a8 8 0 0 0 4.4 7.754l11.578 5.789-3.56 56.656a87.906 87.906 0 0 1 -20.44 2.4c-1.1 0-2.2-.027-3.292-.068z"/></svg>