<svg id="Filled" height="512" viewBox="0 0 512 512" width="512" xmlns="http://www.w3.org/2000/svg"><path d="m368 488h-224l-24-304h272z" fill="#d8c8b9"/><path d="m392 88v96h-272v-96s8-64 136-64 136 64 136 64z" fill="#fae8d8"/><path d="m120 184 24 304 144-176v-56l-88-72z" fill="#e2d2c2"/><path d="m392 184-24 304-144-176v-56l88-72z" fill="#efdece"/><path d="m296 80h-80a8 8 0 0 0 0 16h80a8 8 0 0 0 0-16z"/><path d="m458.971 16.572a8 8 0 0 0 -10.4 4.457l-48.571 121.43v-54.459a8.019 8.019 0 0 0 -.062-.992c-.362-2.9-10.411-71.008-143.938-71.008s-143.576 68.108-143.938 71.008a8.019 8.019 0 0 0 -.062.992v54.459l-48.572-121.43a8 8 0 1 0 -14.856 5.942l63.549 158.871 23.9 302.788a8 8 0 0 0 7.979 7.37h224a8 8 0 0 0 7.975-7.37l23.9-302.788 63.553-158.871a8 8 0 0 0 -4.457-10.399zm-330.315 175.428h68.488l46.223 37.818-24.433 19.991a8 8 0 0 0 -2.934 6.191v56a8 8 0 0 0 1.809 5.066l27.855 34.045-95.255 116.423zm93.755 0h67.178l-33.589 27.482zm-61.529 288 95.118-116.255 95.118 116.255zm200.709-12.466-129.591-158.389v-49.354l82.855-67.791h68.489zm22.409-291.534h-256v-87.372c.922-4.878 13.5-56.628 128-56.628s127.078 51.75 128 56.628z"/></svg>